/* XPM */
static xpm_row_t const i_xpm[] = {
"9 33 4 1",
" 	c None",
".	c #F20000",
"+	c #F30000",
"@	c #F10000",
"         ",
"         ",
"         ",
"         ",
"         ",
"   ..... ",
"   +.... ",
"   @.... ",
"   ..... ",
"   ..... ",
"   ..... ",
"   ..... ",
"   ..... ",
"   ..... ",
"   ..... ",
"   ..... ",
"   ..... ",
"   ..... ",
"   ..... ",
"   ..... ",
"   ..... ",
"   ....+ ",
"   ..... ",
"   ..... ",
"   ..... ",
"   ..... ",
"         ",
"         ",
"         ",
"         ",
"         ",
"         ",
"         "};
