/* XPM */
static xpm_row_t const j_xpm[] = {
"16 33 4 1",
" 	c None",
".	c #F30000",
"+	c #F20000",
"@	c #F10000",
"                ",
"                ",
"                ",
"                ",
"                ",
"          .++++ ",
"          ++++. ",
"          +++++ ",
"          +++++ ",
"          +++++ ",
"          +++++ ",
"          +++++ ",
"          .++++ ",
"          +++++ ",
"          +++++ ",
"          +++++ ",
"          .++++ ",
"          +++++ ",
"          +++++ ",
"          @++++ ",
"          +++++ ",
"   ++++++++++++ ",
"   +++++++++++  ",
"   ++++++++++   ",
"   ++++++++++   ",
"   +++++++@@    ",
"                ",
"                ",
"                ",
"                ",
"                ",
"                ",
"                "};
