/* XPM */
static xpm_row_t const l_xpm[] = {
"16 33 4 1",
" 	c None",
".	c #F20000",
"+	c #F30000",
"@	c #F10000",
"                ",
"                ",
"                ",
"                ",
"                ",
"   .....        ",
"   +....        ",
"   @....        ",
"   .....        ",
"   .....        ",
"   .....        ",
"   .....        ",
"   .....        ",
"   .....        ",
"   .....        ",
"   .....        ",
"   ....+        ",
"   .....        ",
"   .....        ",
"   .....        ",
"   .....        ",
"   ............ ",
"   ............ ",
"   ............ ",
"   ............ ",
"   ............ ",
"                ",
"                ",
"                ",
"                ",
"                ",
"                ",
"                "};
