/* XPM */
static xpm_row_t const x_xpm[] = {
"17 33 4 1",
" 	c None",
".	c #F20000",
"+	c #F10000",
"@	c #F30000",
"                 ",
"                 ",
"                 ",
"                 ",
"                 ",
"  .....    ..... ",
"  ......  ...... ",
"   .....  .....  ",
"   .....+......  ",
"    ....@.....   ",
"    ..........   ",
"    +........    ",
"     ........    ",
"     .......+    ",
"      ......     ",
"      ......     ",
"      ......     ",
"     @.......    ",
"     ........    ",
"    .........    ",
"    ..........   ",
"    ..........   ",
"   .....@+.....  ",
"   .....  .....  ",
"  @.....  ...... ",
"  .....    ....@ ",
"                 ",
"                 ",
"                 ",
"                 ",
"                 ",
"                 ",
"                 "};
