/* XPM */
static char * evil_bird_frame1_xpm[] = {
"50 37 429 2",
"  	c None",
". 	c #000000",
"+ 	c #2E2E2E",
"@ 	c #9E9E9E",
"# 	c #D8D8D8",
"$ 	c #C1C1C1",
"% 	c #2D2D2D",
"& 	c #5B5B5B",
"* 	c #6C6C6C",
"= 	c #202020",
"- 	c #65243A",
"; 	c #8A3451",
"> 	c #A43F60",
", 	c #AA4164",
"' 	c #A23E60",
") 	c #88334F",
"! 	c #652439",
"~ 	c #686868",
"{ 	c #C5C5C5",
"] 	c #E3E3E3",
"^ 	c #3F3F3F",
"/ 	c #3B3B3B",
"( 	c #C8C8C8",
"_ 	c #A6A6A6",
": 	c #7D7D7D",
"< 	c #E8E8E8",
"[ 	c #F0F0F0",
"} 	c #060102",
"| 	c #923755",
"1 	c #D2889C",
"2 	c #F5BECC",
"3 	c #FFD9E2",
"4 	c #FFE6EC",
"5 	c #FFDEE6",
"6 	c #FFDCE4",
"7 	c #FFD7E1",
"8 	c #FFD8E1",
"9 	c #FFD2DD",
"0 	c #F7C1CF",
"a 	c #D898A9",
"b 	c #A74C68",
"c 	c #481728",
"d 	c #080808",
"e 	c #1E1E1E",
"f 	c #969696",
"g 	c #7C7C7C",
"h 	c #7A7A7A",
"i 	c #949494",
"j 	c #CCCCCC",
"k 	c #B0B0B0",
"l 	c #3A3A3A",
"m 	c #9B4C64",
"n 	c #EDB4C2",
"o 	c #FFCDD9",
"p 	c #FFBFCF",
"q 	c #FD9AB2",
"r 	c #FB6E92",
"s 	c #F8537D",
"t 	c #F8527B",
"u 	c #F8547D",
"v 	c #FB5B88",
"w 	c #FD6191",
"x 	c #FF719F",
"y 	c #FF95B3",
"z 	c #FFAEC3",
"A 	c #FCA2BB",
"B 	c #9B5D6F",
"C 	c #676767",
"D 	c #979797",
"E 	c #BBBBBB",
"F 	c #491828",
"G 	c #D97F99",
"H 	c #FFA3BB",
"I 	c #F9688B",
"J 	c #F34161",
"K 	c #EE293B",
"L 	c #EC1C24",
"M 	c #E11A22",
"N 	c #B51319",
"O 	c #820B0F",
"P 	c #EA1C24",
"Q 	c #EE2738",
"R 	c #F23E5D",
"S 	c #F75078",
"T 	c #F95F8F",
"U 	c #916271",
"V 	c #DA9EB2",
"W 	c #8C8084",
"X 	c #7E7E7E",
"Y 	c #929292",
"Z 	c #565656",
"` 	c #A7A7A7",
" .	c #AAAAAA",
"..	c #B7B7B7",
"+.	c #545454",
"@.	c #632338",
"#.	c #EF6290",
"$.	c #EE2A3C",
"%.	c #7A090D",
"&.	c #CA161D",
"*.	c #9A0A0F",
"=.	c #870609",
"-.	c #AB0E14",
";.	c #BC141A",
">.	c #DF90A3",
",.	c #FFAFCA",
"'.	c #F7ABC5",
").	c #635257",
"!.	c #E4E4E4",
"~.	c #FFFFFF",
"{.	c #CFCFCF",
"].	c #DDDDDD",
"^.	c #120307",
"/.	c #DF5079",
"(.	c #EF3046",
"_.	c #010000",
":.	c #970E13",
"<.	c #EB1C24",
"[.	c #C9151B",
"}.	c #AC0F14",
"|.	c #AD0F14",
"1.	c #B00F15",
"2.	c #7C090D",
"3.	c #402A2A",
"4.	c #D18183",
"5.	c #F18E96",
"6.	c #AB6F7E",
"7.	c #B19BA2",
"8.	c #BABABA",
"9.	c #FDFDFD",
"0.	c #EFEFEF",
"a.	c #4D4D4D",
"b.	c #595959",
"c.	c #78090D",
"d.	c #7C090E",
"e.	c #450304",
"f.	c #E81B23",
"g.	c #B71117",
"h.	c #BB1218",
"i.	c #D5171F",
"j.	c #250101",
"k.	c #A25A5D",
"l.	c #DB8386",
"m.	c #B76C6E",
"n.	c #AE878A",
"o.	c #FED1DC",
"p.	c #E9CCD5",
"q.	c #BBBABA",
"r.	c #CECECE",
"s.	c #BEBEBE",
"t.	c #A8A8A8",
"u.	c #9D9D9D",
"v.	c #600406",
"w.	c #DC1A21",
"x.	c #D71920",
"y.	c #CB7174",
"z.	c #EC8488",
"A.	c #472425",
"B.	c #7B5D5F",
"C.	c #F8C0C3",
"D.	c #FAC1C4",
"E.	c #FCCAD2",
"F.	c #E7CAD3",
"G.	c #A2A2A2",
"H.	c #181818",
"I.	c #434343",
"J.	c #CDCDCD",
"K.	c #5F5F5F",
"L.	c #6A6A6A",
"M.	c #797979",
"N.	c #BFBFBF",
"O.	c #E1E1E1",
"P.	c #5C5C5D",
"Q.	c #130000",
"R.	c #B91218",
"S.	c #C0151B",
"T.	c #E37E82",
"U.	c #A45A5C",
"V.	c #1D1415",
"W.	c #E7B2B5",
"X.	c #D5A8AD",
"Y.	c #30282B",
"Z.	c #343434",
"`.	c #F7F7F7",
" +	c #030303",
".+	c #E5E5E5",
"++	c #EBEBEB",
"@+	c #6F6F6F",
"#+	c #787878",
"$+	c #DBDCDC",
"%+	c #262727",
"&+	c #4C0202",
"*+	c #E41A22",
"=+	c #AB1117",
"-+	c #E47F83",
";+	c #1B0A0B",
">+	c #A98184",
",+	c #B98E91",
"'+	c #0C0707",
")+	c #794143",
"!+	c #917878",
"~+	c #8B8B8B",
"{+	c #EEEEEE",
"]+	c #888888",
"^+	c #EDEDED",
"/+	c #BCBCBC",
"(+	c #F6F7F7",
"_+	c #8F9091",
":+	c #020000",
"<+	c #9C0F14",
"[+	c #562D2E",
"}+	c #A2595B",
"|+	c #352728",
"1+	c #F0B9BC",
"2+	c #EAB4B7",
"3+	c #856567",
"4+	c #975255",
"5+	c #F1868A",
"6+	c #D98588",
"7+	c #A1A1A1",
"8+	c #5C5C5C",
"9+	c #D5D5D5",
"0+	c #F5F5F5",
"a+	c #BFC0C1",
"b+	c #83080C",
"c+	c #920D12",
"d+	c #5F3233",
"e+	c #2D1415",
"f+	c #A78082",
"g+	c #F6BEC1",
"h+	c #B98E90",
"i+	c #352627",
"j+	c #3A1C1D",
"k+	c #C56D70",
"l+	c #F5898D",
"m+	c #F4898D",
"n+	c #7C6666",
"o+	c #313131",
"p+	c #D9D9D9",
"q+	c #858585",
"r+	c #F4F4F4",
"s+	c #D7D8D9",
"t+	c #292929",
"u+	c #450001",
"v+	c #800B0F",
"w+	c #AC8486",
"x+	c #584244",
"y+	c #924F52",
"z+	c #E98286",
"A+	c #F4888C",
"B+	c #D8787C",
"C+	c #AC5E61",
"D+	c #542B2D",
"E+	c #FEFEFE",
"F+	c #DFDFDF",
"G+	c #060606",
"H+	c #F1F1F1",
"I+	c #C4C4C4",
"J+	c #D6D8D9",
"K+	c #616262",
"L+	c #3A0000",
"M+	c #DE1921",
"N+	c #7F0A0E",
"O+	c #321819",
"P+	c #9A5457",
"Q+	c #AA5E60",
"R+	c #844749",
"S+	c #35191A",
"T+	c #160101",
"U+	c #880B10",
"V+	c #B7131A",
"W+	c #F9F9F9",
"X+	c #A3A3A3",
"Y+	c #353535",
"Z+	c #CACACA",
"`+	c #FEFFFF",
" @	c #D0D2D3",
".@	c #5B5C5C",
"+@	c #3B0000",
"@@	c #DA1820",
"#@	c #8A0C11",
"$@	c #1B0101",
"%@	c #71080C",
"&@	c #9F0F15",
"*@	c #C5161C",
"=@	c #E51B23",
"-@	c #280102",
";@	c #E7E7E7",
">@	c #CBCBCB",
",@	c #646464",
"'@	c #010101",
")@	c #E9E9E9",
"!@	c #CFD1D2",
"~@	c #1B1B1B",
"{@	c #430000",
"]@	c #DD1920",
"^@	c #BD141B",
"/@	c #9D0F14",
"(@	c #A91117",
"_@	c #BB141A",
":@	c #CA171D",
"<@	c #D91920",
"[@	c #6D070B",
"}@	c #C2C2C2",
"|@	c #DBDBDB",
"1@	c #E5E6E6",
"2@	c #B6B8B8",
"3@	c #530000",
"4@	c #6D6D6D",
"5@	c #FAFAFA",
"6@	c #E2E2E2",
"7@	c #D2D4D5",
"8@	c #808182",
"9@	c #100000",
"0@	c #87060A",
"a@	c #420304",
"b@	c #C0C0C0",
"c@	c #E8E9E9",
"d@	c #D3D4D5",
"e@	c #626262",
"f@	c #F8F8F8",
"g@	c #DBDCDD",
"h@	c #B5B7B8",
"i@	c #440000",
"j@	c #B51116",
"k@	c #E21B22",
"l@	c #F2F2F2",
"m@	c #E0E2E2",
"n@	c #C0C2C3",
"o@	c #666768",
"p@	c #040000",
"q@	c #848484",
"r@	c #DADCDC",
"s@	c #B7B9BA",
"t@	c #313232",
"u@	c #230000",
"v@	c #660000",
"w@	c #BE141B",
"x@	c #9F0E13",
"y@	c #222222",
"z@	c #484949",
"A@	c #0F0000",
"B@	c #520000",
"C@	c #510000",
"D@	c #1F0101",
"E@	c #494949",
"F@	c #B2B2B2",
"G@	c #BDBEBE",
"H@	c #A8AAAB",
"I@	c #7E8080",
"J@	c #050505",
"K@	c #210000",
"L@	c #5F0000",
"M@	c #A40D12",
"N@	c #DE1A21",
"O@	c #B11218",
"P@	c #76080D",
"Q@	c #D3181F",
"R@	c #E31A22",
"S@	c #970A0E",
"T@	c #320000",
"U@	c #260000",
"V@	c #3E0000",
"W@	c #490000",
"X@	c #600000",
"Y@	c #680000",
"Z@	c #C4141A",
"`@	c #D51820",
" #	c #420000",
".#	c #630000",
"+#	c #94090D",
"@#	c #300202",
"##	c #AE1218",
"$#	c #A90E13",
"%#	c #AA0E13",
"&#	c #BA1218",
"*#	c #740203",
"=#	c #570000",
"-#	c #5D0000",
";#	c #670000",
">#	c #AF0F15",
",#	c #D5181F",
"'#	c #84070A",
")#	c #5C0000",
"!#	c #650000",
"~#	c #6C0101",
"{#	c #E91B23",
"]#	c #A51016",
"^#	c #580507",
"/#	c #CC171E",
"(#	c #E61B22",
"_#	c #96090E",
":#	c #610000",
"<#	c #1E0000",
"[#	c #1F0000",
"}#	c #5E0000",
"|#	c #810507",
"1#	c #CE161D",
"2#	c #DF1921",
"3#	c #D91820",
"4#	c #E71B23",
"5#	c #D3171E",
"6#	c #B11015",
"7#	c #CD161D",
"8#	c #8E070B",
"9#	c #90080C",
"0#	c #860609",
"a#	c #290000",
"b#	c #540000",
"c#	c #92080C",
"d#	c #CC151C",
"e#	c #EA1C23",
"f#	c #8F080C",
"g#	c #93090D",
"h#	c #800407",
"i#	c #590000",
"j#	c #200000",
"k#	c #370000",
"l#	c #730203",
"m#	c #A10C11",
"n#	c #BE1219",
"o#	c #C5141A",
"p#	c #500000",
"q#	c #270000",
"r#	c #4C0000",
"s#	c #5B0000",
"t#	c #4D0000",
"u#	c #400000",
"v#	c #2B0000",
"                                                                                                    ",
"                            . . . . .                                                               ",
"                          . . . . . .                                                               ",
"                          . . .                                                                     ",
"              . . .         .                       . . . . . . . . . .                             ",
"            . . . .         . . . . . . . . .     . + @ # $ % . % & * = .                           ",
"          . . . .       . . . . - ; > , ' ) ! . . . ~ { ] ^ / ( _ : < [ : .                         ",
"          . . .       . } | 1 2 3 4 5 6 7 8 9 0 a b c . d e @ f g h i j k l .                       ",
"            . .   . . m n o p q r s t t u v w x y z A B . C h D E g / . . . . .                     ",
"              . . F G H I J K L L M N O P L L Q R S T F U V W X Y . Z `  .... +.. .                 ",
"    . .       . @.#.S $.L L M N %.. . . &.L L *.=.-.;.. >.,.'.).. g !.~.{.i . ].D .                 ",
"    . . . . . ^./.(.L M N %._.. . . . . :.<.[.}.|.1.2.3.4.5.6.. 7.8.j 9.0.Z a.    b..               ",
"  . . . . . . . . c.d._.. . . . . . . . e.f.g.h.L i.j.k.l.m.. n.o.p.q.r.s.. t.    u..               ",
"  . . . . . . . . . . . . . . . . . . v.w.L L L L x.. y.z.A.B.C.D.E.F.G.H.I.J.    @ .               ",
"    . K.L.. . . . . . . . . . M.N.O.P.Q.R.L L L L S.. T.U.V.W.D.D.D.X.Y.Z.X `.    & . . . . . .     ",
"  .  +.+~.++E @+. . . . #+N.0.~.~.~.$+%+&+*+L L L =+. -+;+>+D.D.D.,+'+)+!+~+  {+]+. . . . . .       ",
"  . D ~.~.~.~.~.^+/+s.0.~.~.~.~.~.~.(+_+:+R.L L L <+[+}+|+1+D.2+3+. 4+5+6+h 7+8+. . . . . .         ",
"  . 9+~.~.~.~.~.~.~.~.9.0+~.~.~.~.~.~.a+. b+L L L c+d+e+f+g+h+i+j+k+l+l+m+n+o+. . . . .             ",
"  . ^+p+q+~.~.~.~.~.~.@ ^ r+~.~.~.~.~.s+t+u+<.L L v+. . w+x+. y+z+A+B+C+D+. . . . . .               ",
"  . E+F+G+H+~.~.~.~.~.I+. r.~.~.~.~.~.J+K+L+M+L L N+. . . O+P+Q+R+S+. T+U+V+. . . .                 ",
"  . W+X+. {+~.~.~.~.~.Y+. Z+~.~.~.~.`+ @.@+@@@L L #@. . . . . $@%@&@*@=@L L -@. . . . . . . . .     ",
"  . ;@>@,@~.~.~.~.~.~.h '@)@~.~.~.~.0+!@~@{@]@L L ^@/@(@_@:@<@L L L L L L L [@. . . . . . . . . . . ",
"  . }@~.W+~.~.~.~.~.~.0.|@~.~.~.~.~.1@2@. 3@P L L L L L L L L L L L L L L L [@. . . . . . . . . .   ",
"  . 4@E+~.~.~.~.5@6@|@~.~.~.~.~.~.W+7@8@9@0@L L L L L L L L L L L L L L L L a@. . . . . . .         ",
"    . b@~.~.~.c@d@L.e@f@~.~.~.~.9.g@h@. i@j@L L L L L L L L L L L L L L L k@.                       ",
"    .  +s.l@m@n@o@:+p@q@0+~.~.f@r@s@t@u@v@&._@w@=@L L L L L L L L L L L P x@.                       ",
"      . . y@z@. A@B@C@D@E@F@G@H@I@J@K@L@M@N@O@P@Q@L L L L L L L L L L R@S@T@.                       ",
"        . U@V@W@X@Y@Z@`@N+. . . A@ #.#+#M @###<.L L L L L L L f.$#%#&#*#=#.                         ",
"        . 9@-#;#>#@@L L L ,#'#)#!#~#>#{#L ]#^#/#L L L L (#L {#_#v@v@v@:#<#.                         ",
"          . [#}#|#1#L L L L L 2#3#4#L L 5#6#h.*+L L 7#8#v@9#0#v@v@v@:#a#.                           ",
"            . Q.b#v@c#d#e#L L L L L 5#f#v@v@v@~#g#h#v@v@v@v@v@v@v@i#j#.                             ",
"              . . k#)#v@l#m#n#1#o#c#v@v@v@v@v@v@v@v@v@v@v@v@v@L@V@. . . .                           ",
"                  . . T@p#:#v@v@v@v@v@v@v@v@v@v@v@v@v@v@.#3@k#:+. .   . . . .                       ",
"                      . . . q#V@r#B@s#)#-#-#)#s#b#t#u#v#:+. . .           . .                       ",
"                            . . . . . . . . . . . . . . . . . . . .                                 ",
"                                                              . . .                                 ",
"                                                                                                    "};
