/* XPM */
static char * evil_bird_frame2_xpm[] = {
"50 37 440 2",
"  	c None",
". 	c #000000",
"+ 	c #65243A",
"@ 	c #8A3451",
"# 	c #A43F60",
"$ 	c #AA4164",
"% 	c #A23E60",
"& 	c #88334F",
"* 	c #652439",
"= 	c #060102",
"- 	c #923755",
"; 	c #D2889C",
"> 	c #F5BECC",
", 	c #FFD9E2",
"' 	c #FFE6EC",
") 	c #FFDEE6",
"! 	c #FFDCE4",
"~ 	c #FFD7E1",
"{ 	c #FFD8E1",
"] 	c #FFD2DD",
"^ 	c #F7C1CF",
"/ 	c #D898A9",
"( 	c #A74C68",
"_ 	c #481728",
": 	c #9B4C64",
"< 	c #EDB4C2",
"[ 	c #FFCDD9",
"} 	c #FFBFCF",
"| 	c #FD9AB2",
"1 	c #FB6E92",
"2 	c #F8537D",
"3 	c #F8527B",
"4 	c #F8547D",
"5 	c #FB5B88",
"6 	c #FD6191",
"7 	c #FF719F",
"8 	c #FF95B3",
"9 	c #FFAEC3",
"0 	c #FCA2BB",
"a 	c #CF7F96",
"b 	c #702B42",
"c 	c #5A5A5A",
"d 	c #898989",
"e 	c #393939",
"f 	c #491828",
"g 	c #D97F99",
"h 	c #FFA3BB",
"i 	c #F9688B",
"j 	c #F34161",
"k 	c #EE293B",
"l 	c #EC1C24",
"m 	c #E11A22",
"n 	c #B51319",
"o 	c #820B0F",
"p 	c #EA1C24",
"q 	c #EE2738",
"r 	c #F23E5D",
"s 	c #F75078",
"t 	c #FD6192",
"u 	c #FF6699",
"v 	c #FF689A",
"w 	c #CE517B",
"x 	c #4F1A2C",
"y 	c #181818",
"z 	c #5B5B5B",
"A 	c #636363",
"B 	c #808080",
"C 	c #6E6E6E",
"D 	c #C0C0C0",
"E 	c #B6B6B6",
"F 	c #525252",
"G 	c #632338",
"H 	c #EF6290",
"I 	c #EE2A3C",
"J 	c #7A090D",
"K 	c #CA161D",
"L 	c #9A0A0F",
"M 	c #870609",
"N 	c #AB0E14",
"O 	c #E91C24",
"P 	c #F13B58",
"Q 	c #F95681",
"R 	c #FF6698",
"S 	c #EA5D8C",
"T 	c #100306",
"U 	c #111111",
"V 	c #777777",
"W 	c #FAFAFA",
"X 	c #F5F5F5",
"Y 	c #878787",
"Z 	c #9B9B9B",
"` 	c #6A6A6A",
" .	c #120307",
"..	c #DF5079",
"+.	c #EF3046",
"@.	c #010000",
"#.	c #970E13",
"$.	c #EB1C24",
"%.	c #C9151B",
"&.	c #AC0F14",
"*.	c #AD0F14",
"=.	c #B00F15",
"-.	c #E61B23",
";.	c #D7181F",
">.	c #B11015",
",.	c #E12D42",
"'.	c #74273E",
").	c #38232A",
"!.	c #BB8999",
"~.	c #7B7A7A",
"{.	c #9F9F9F",
"].	c #D1D1D1",
"^.	c #B3B3B3",
"/.	c #7B7B7B",
"(.	c #F7F7F7",
"_.	c #EEEEEE",
":.	c #2A2A2A",
"<.	c #78090D",
"[.	c #7C090E",
"}.	c #450304",
"|.	c #E81B23",
"1.	c #B71117",
"2.	c #BB1218",
"3.	c #D6181F",
"4.	c #CA151C",
"5.	c #C3131A",
"6.	c #570304",
"7.	c #1B0A0B",
"8.	c #D77E86",
"9.	c #FDA7BE",
"0.	c #DA9EB2",
"a.	c #676767",
"b.	c #4E4E4E",
"c.	c #363636",
"d.	c #484848",
"e.	c #424242",
"f.	c #600406",
"g.	c #DC1A21",
"h.	c #E21A22",
"i.	c #E41A22",
"j.	c #C2151C",
"k.	c #B76568",
"l.	c #F5898D",
"m.	c #CA8090",
"n.	c #4D373E",
"o.	c #2F2F2F",
"p.	c #686868",
"q.	c #7A7A7A",
"r.	c #919191",
"s.	c #595959",
"t.	c #5F5F5F",
"u.	c #797979",
"v.	c #BFBFBF",
"w.	c #E1E1E1",
"x.	c #5C5C5D",
"y.	c #130000",
"z.	c #B91218",
"A.	c #E51B23",
"B.	c #460305",
"C.	c #7B4244",
"D.	c #F4898D",
"E.	c #E47F83",
"F.	c #7A4244",
"G.	c #795C5D",
"H.	c #B9A3A8",
"I.	c #B9B9B9",
"J.	c #C6C6C6",
"K.	c #BABABA",
"L.	c #D7D7D7",
"M.	c #434343",
"N.	c #030303",
"O.	c #E5E5E5",
"P.	c #FFFFFF",
"Q.	c #EBEBEB",
"R.	c #BBBBBB",
"S.	c #6F6F6F",
"T.	c #787878",
"U.	c #EFEFEF",
"V.	c #DBDCDC",
"W.	c #262727",
"X.	c #4C0202",
"Y.	c #A41016",
"Z.	c #0C0304",
"`.	c #E07D81",
" +	c #CD7275",
".+	c #391C1D",
"++	c #433233",
"@+	c #CA9C9E",
"#+	c #FAC1C4",
"$+	c #F8C2C5",
"%+	c #C5BBBB",
"&+	c #D6D6D6",
"*+	c #BCBCBC",
"=+	c #959595",
"-+	c #565656",
";+	c #979797",
">+	c #EDEDED",
",+	c #BEBEBE",
"'+	c #F6F7F7",
")+	c #8F9091",
"!+	c #020000",
"~+	c #E31B22",
"{+	c #2D0102",
"]+	c #9E5759",
"^+	c #BC686B",
"/+	c #030101",
"(+	c #7E6061",
"_+	c #EDB7B9",
":+	c #E9BFC1",
"<+	c #C7C7C7",
"[+	c #747474",
"}+	c #535353",
"|+	c #3D3D3D",
"1+	c #D5D5D5",
"2+	c #FDFDFD",
"3+	c #BFC0C1",
"4+	c #83080C",
"5+	c #A91117",
"6+	c #070202",
"7+	c #975255",
"8+	c #997577",
"9+	c #F6BEC1",
"0+	c #F3BCBF",
"a+	c #999091",
"b+	c #3C3C3C",
"c+	c #020202",
"d+	c #575757",
"e+	c #D9D9D9",
"f+	c #858585",
"g+	c #9E9E9E",
"h+	c #3F3F3F",
"i+	c #F4F4F4",
"j+	c #D7D8D9",
"k+	c #292929",
"l+	c #450001",
"m+	c #480305",
"n+	c #180909",
"o+	c #A37D7F",
"p+	c #F9C1C4",
"q+	c #E8B3B6",
"r+	c #C99B9D",
"s+	c #947173",
"t+	c #322425",
"u+	c #6D6D6D",
"v+	c #8F8F8F",
"w+	c #FEFEFE",
"x+	c #DFDFDF",
"y+	c #060606",
"z+	c #F1F1F1",
"A+	c #C4C4C4",
"B+	c #CECECE",
"C+	c #D6D8D9",
"D+	c #616262",
"E+	c #3A0000",
"F+	c #DE1921",
"G+	c #C5161C",
"H+	c #543F40",
"I+	c #B2888B",
"J+	c #A27C7E",
"K+	c #7D5F61",
"L+	c #3C2C2D",
"M+	c #522A2C",
"N+	c #A45A5D",
"O+	c #CE787B",
"P+	c #9C9C9C",
"Q+	c #F3F3F3",
"R+	c #4F4F4F",
"S+	c #F9F9F9",
"T+	c #A3A3A3",
"U+	c #353535",
"V+	c #CACACA",
"W+	c #FEFFFF",
"X+	c #D0D2D3",
"Y+	c #5B5C5C",
"Z+	c #3B0000",
"`+	c #DA1820",
" @	c #8F0D12",
".@	c #562C2E",
"+@	c #7E4446",
"@@	c #A3595C",
"#@	c #C26B6F",
"$@	c #E27E81",
"%@	c #817B7B",
"&@	c #4B4B4B",
"*@	c #E7E7E7",
"=@	c #CBCBCB",
"-@	c #646464",
";@	c #010101",
">@	c #E9E9E9",
",@	c #CFD1D2",
"'@	c #1B1B1B",
")@	c #430000",
"!@	c #DD1920",
"~@	c #C8161D",
"{@	c #3E0204",
"]@	c #040101",
"^@	c #6E3B3C",
"/@	c #A2595B",
"(@	c #C16B6E",
"_@	c #D9797C",
":@	c #E68184",
"<@	c #F4888C",
"[@	c #987A7B",
"}@	c #6C6C6C",
"|@	c #585858",
"1@	c #262626",
"2@	c #C2C2C2",
"3@	c #DBDBDB",
"4@	c #E5E6E6",
"5@	c #B6B8B8",
"6@	c #530000",
"7@	c #D0171E",
"8@	c #AD1218",
"9@	c #820A0F",
"0@	c #3A0203",
"a@	c #050202",
"b@	c #E2E2E2",
"c@	c #D2D4D5",
"d@	c #808182",
"e@	c #100000",
"f@	c #87060A",
"g@	c #DD1A21",
"h@	c #CC171E",
"i@	c #BC141A",
"j@	c #B21219",
"k@	c #A31016",
"l@	c #A61117",
"m@	c #140001",
"n@	c #E8E9E9",
"o@	c #D3D4D5",
"p@	c #626262",
"q@	c #F8F8F8",
"r@	c #DBDCDD",
"s@	c #B5B7B8",
"t@	c #440000",
"u@	c #B51116",
"v@	c #E21B22",
"w@	c #F2F2F2",
"x@	c #E0E2E2",
"y@	c #C0C2C3",
"z@	c #666768",
"A@	c #040000",
"B@	c #848484",
"C@	c #DADCDC",
"D@	c #B7B9BA",
"E@	c #313232",
"F@	c #230000",
"G@	c #660000",
"H@	c #BB141A",
"I@	c #BE141B",
"J@	c #9F0E13",
"K@	c #222222",
"L@	c #484949",
"M@	c #0F0000",
"N@	c #520000",
"O@	c #510000",
"P@	c #1F0101",
"Q@	c #494949",
"R@	c #B2B2B2",
"S@	c #BDBEBE",
"T@	c #A8AAAB",
"U@	c #7E8080",
"V@	c #050505",
"W@	c #210000",
"X@	c #5F0000",
"Y@	c #A40D12",
"Z@	c #DE1A21",
"`@	c #B11218",
" #	c #76080D",
".#	c #D3181F",
"+#	c #E31A22",
"@#	c #970A0E",
"##	c #320000",
"$#	c #260000",
"%#	c #3E0000",
"&#	c #490000",
"*#	c #600000",
"=#	c #680000",
"-#	c #C4141A",
";#	c #D51820",
">#	c #7F0A0E",
",#	c #420000",
"'#	c #630000",
")#	c #94090D",
"!#	c #300202",
"~#	c #AE1218",
"{#	c #A90E13",
"]#	c #AA0E13",
"^#	c #BA1218",
"/#	c #740203",
"(#	c #570000",
"_#	c #5D0000",
":#	c #670000",
"<#	c #AF0F15",
"[#	c #D5181F",
"}#	c #84070A",
"|#	c #5C0000",
"1#	c #650000",
"2#	c #6C0101",
"3#	c #E91B23",
"4#	c #A51016",
"5#	c #580507",
"6#	c #E61B22",
"7#	c #96090E",
"8#	c #610000",
"9#	c #1E0000",
"0#	c #1F0000",
"a#	c #5E0000",
"b#	c #810507",
"c#	c #CE161D",
"d#	c #DF1921",
"e#	c #D91820",
"f#	c #E71B23",
"g#	c #D3171E",
"h#	c #CD161D",
"i#	c #8E070B",
"j#	c #90080C",
"k#	c #860609",
"l#	c #290000",
"m#	c #540000",
"n#	c #92080C",
"o#	c #CC151C",
"p#	c #EA1C23",
"q#	c #8F080C",
"r#	c #93090D",
"s#	c #800407",
"t#	c #590000",
"u#	c #200000",
"v#	c #370000",
"w#	c #730203",
"x#	c #A10C11",
"y#	c #BE1219",
"z#	c #C5141A",
"A#	c #500000",
"B#	c #270000",
"C#	c #4C0000",
"D#	c #5B0000",
"E#	c #4D0000",
"F#	c #400000",
"G#	c #2B0000",
"                                                                                                    ",
"                            . . . . .                                                               ",
"                          . . . . . .                                                               ",
"                          . . .                                                                     ",
"              . . .         .                                                                       ",
"            . . . .         . . . . . . . . .                                                       ",
"          . . . .       . . . . + @ # $ % & * . . . .                                               ",
"          . . .       . = - ; > , ' ) ! ~ { ] ^ / ( _ . .   . . . . .                               ",
"            . .   . . : < [ } | 1 2 3 3 4 5 6 7 8 9 0 a b . . c d e . . . . . .                     ",
"              . . f g h i j k l l m n o p l l q r s t u v w x y z . A B C D E F .                   ",
"    . .       . G H s I l l m n J . . . K l l L M N O P Q R S T U V W X Y Z     ` .                 ",
"    . . . . .  ...+.l m n J @.. . . . . #.$.%.&.*.=.-.;.>.,.'.).!.~.{.].^./.(.  _.:..               ",
"  . . . . . . . . <.[.@.. . . . . . . . }.|.1.2.l 3.M 4.5.6.7.8.9.0.~.a.b.c.e d.C e..               ",
"  . . . . . . . . . . . . . . . . . . f.g.l l l l l h.i.j.. k.l.l.m.n.. o.p.q.r.s.. .               ",
"    . t.` . . . . . . . . . . u.v.w.x.y.z.l l l l l l A.B.C.D.E.F.. G.H.I.J.K.L.W M.. . . . . .     ",
"  . N.O.P.Q.R.S.. . . . T.v.U.P.P.P.V.W.X.i.l l l l l Y.Z.`. +.+++@+#+$+%+J.&+*+=+. -+. . . .       ",
"  . ;+P.P.P.P.P.>+*+,+U.P.P.P.P.P.P.'+)+!+z.l l l l ~+{+]+^+/+(+_+#+#+#+:+K.<+[+. }+q.|+. .         ",
"  . 1+P.P.P.P.P.P.P.P.2+X P.P.P.P.P.P.3+. 4+l l l l 5+6+7+. 8+9+#+#+#+#+0+a+b+c+d+q.q.-+.           ",
"  . >+e+f+P.P.P.P.P.P.g+h+i+P.P.P.P.P.j+k+l+$.l l p m+n+. o+p+#+#+q+r+s+t+. b+u+q.q.v+/..           ",
"  . w+x+y+z+P.P.P.P.P.A+. B+P.P.P.P.P.C+D+E+F+l l G+. . H+I+J+K+L+. . M+N+O+q.q.q.P+Q+R+.           ",
"  . S+T+. _.P.P.P.P.P.U+. V+P.P.P.P.W+X+Y+Z+`+l l  @. . . 6+.@+@@@#@$@l.l.l.%@q.q.T.&@. . . . .     ",
"  . *@=@-@P.P.P.P.P.P.q.;@>@P.P.P.P.X ,@'@)@!@l l ~@ @{@. ]@^@/@(@_@:@<@l.l.[@}@|@1@. . . . . . . . ",
"  . 2@P.S+P.P.P.P.P.P.U.3@P.P.P.P.P.4@5@. 6@p l l l l $.7@8@9@0@. . . . a@]@. . . . . . . . . . .   ",
"  . u+w+P.P.P.P.W b@3@P.P.P.P.P.P.S+c@d@e@f@l l l l l l l l l l g@h@i@j@k@l@m@. . . . . . .         ",
"    . D P.P.P.n@o@` p@q@P.P.P.P.2+r@s@. t@u@l l l l l l l l l l l l l l l v@.                       ",
"    . N.,+w@x@y@z@!+A@B@X P.P.q@C@D@E@F@G@K H@I@A.l l l l l l l l l l l p J@.                       ",
"      . . K@L@. M@N@O@P@Q@R@S@T@U@V@W@X@Y@Z@`@ #.#l l l l l l l l l l +#@###.                       ",
"        . $#%#&#*#=#-#;#>#. . . M@,#'#)#m !#~#$.l l l l l l l |.{#]#^#/#(#.                         ",
"        . e@_#:#<#`+l l l [#}#|#1#2#<#3#l 4#5#h@l l l l 6#l 3#7#G@G@G@8#9#.                         ",
"          . 0#a#b#c#l l l l l d#e#f#l l g#>.2.i.l l h#i#G@j#k#G@G@G@8#l#.                           ",
"            . y.m#G@n#o#p#l l l l l g#q#G@G@G@2#r#s#G@G@G@G@G@G@G@t#u#.                             ",
"              . . v#|#G@w#x#y#c#z#n#G@G@G@G@G@G@G@G@G@G@G@G@G@X@%#. . . .                           ",
"                  . . ##A#8#G@G@G@G@G@G@G@G@G@G@G@G@G@G@'#6@v#!+. .   . . . .                       ",
"                      . . . B#%#C#N@D#|#_#_#|#D#m#E#F#G#!+. . .           . .                       ",
"                            . . . . . . . . . . . . . . . . . . . .                                 ",
"                                                              . . .                                 ",
"                                                                                                    "};
