/* XPM */
static xpm_row_t const special_bird_frame1_xpm[] = {
"50 39 315 2",
"  	c None",
". 	c #A30405",
"+ 	c #990000",
"@ 	c #C20F15",
"# 	c #EC1C24",
"$ 	c #E41A21",
"% 	c #9F0203",
"& 	c #D7161D",
"* 	c #A40406",
"= 	c #BB0D12",
"- 	c #890000",
"; 	c #E81B23",
"> 	c #BA0C11",
", 	c #DF1A21",
"' 	c #B40A0E",
") 	c #730000",
"! 	c #000000",
"~ 	c #BB1218",
"{ 	c #520406",
"] 	c #EB1C24",
"^ 	c #E61A22",
"/ 	c #9B0101",
"( 	c #DCD1D1",
"_ 	c #E7E7E7",
": 	c #DADADA",
"< 	c #CACACA",
"[ 	c #ABABAB",
"} 	c #777777",
"| 	c #E11A22",
"1 	c #4D4E4E",
"2 	c #C46869",
"3 	c #C31015",
"4 	c #BB8B8B",
"5 	c #FFFFFF",
"6 	c #F5F5F5",
"7 	c #CBCBCB",
"8 	c #7F7F7F",
"9 	c #F8E6E6",
"0 	c #EF6A6C",
"a 	c #DE181F",
"b 	c #9A0000",
"c 	c #9F3838",
"d 	c #F2ECEC",
"e 	c #E7E7E8",
"f 	c #CED0D1",
"g 	c #BCBEC0",
"h 	c #C2C3C5",
"i 	c #E7E8E8",
"j 	c #E4E4E4",
"k 	c #8C8C8C",
"l 	c #3A0203",
"m 	c #E41B22",
"n 	c #F5B2B3",
"o 	c #A60507",
"p 	c #CFBCBD",
"q 	c #C6C8C9",
"r 	c #BBBDBF",
"s 	c #C3C4C6",
"t 	c #F1F1F2",
"u 	c #D9D9D9",
"v 	c #5A5A5A",
"w 	c #454545",
"x 	c #DEA4A5",
"y 	c #ED2F35",
"z 	c #EA1B23",
"A 	c #B2090E",
"B 	c #AD8788",
"C 	c #BFC1C3",
"D 	c #DEDFE0",
"E 	c #FCFCFC",
"F 	c #B2B2B2",
"G 	c #616161",
"H 	c #EFEFEF",
"I 	c #FFFEFE",
"J 	c #EF7475",
"K 	c #A87D7E",
"L 	c #C3C5C7",
"M 	c #E3E4E5",
"N 	c #FBFBFC",
"O 	c #DFDFDF",
"P 	c #030303",
"Q 	c #929292",
"R 	c #535353",
"S 	c #F1F1F1",
"T 	c #FBE4E4",
"U 	c #EA1C23",
"V 	c #CDCFD0",
"W 	c #EAEBEB",
"X 	c #FEFEFE",
"Y 	c #E2E2E2",
"Z 	c #393939",
"` 	c #989898",
" .	c #626262",
"..	c #A4A4A4",
"+.	c #151515",
"@.	c #F5B3B3",
"#.	c #E91B23",
"$.	c #AB8687",
"%.	c #D6D7D8",
"&.	c #F3F3F3",
"*.	c #888888",
"=.	c #FAFAFA",
"-.	c #C7C7C7",
";.	c #7B7B7B",
">.	c #FBFBFB",
",.	c #7E7E7E",
"'.	c #BABABA",
").	c #FEFBFB",
"!.	c #BD6F6F",
"~.	c #9B292A",
"{.	c #CFBDBE",
"].	c #F7F7F7",
"^.	c #D2D2D2",
"/.	c #363636",
"(.	c #A7A7A7",
"_.	c #858585",
":.	c #EEEEEE",
"<.	c #383838",
"[.	c #5C5C5C",
"}.	c #F2EAEA",
"|.	c #F2EBEB",
"1.	c #C3C3C3",
"2.	c #282828",
"3.	c #B7B7B7",
"4.	c #C8C8C8",
"5.	c #AAAAAA",
"6.	c #E3E3E3",
"7.	c #F2F2F2",
"8.	c #8B8B8B",
"9.	c #F8F8F8",
"0.	c #3E3E3E",
"a.	c #323232",
"b.	c #F9F9F9",
"c.	c #A9A9A9",
"d.	c #808080",
"e.	c #878787",
"f.	c #ACACAC",
"g.	c #B9B9B9",
"h.	c #BCBCBC",
"i.	c #959595",
"j.	c #FDFDFD",
"k.	c #868686",
"l.	c #A3A3A3",
"m.	c #464646",
"n.	c #EBEBEB",
"o.	c #A2A2A2",
"p.	c #949494",
"q.	c #C2C2C2",
"r.	c #E7E8E9",
"s.	c #DBDCDD",
"t.	c #F5F6F6",
"u.	c #DCDEDF",
"v.	c #D0D2D3",
"w.	c #EEEFEF",
"x.	c #CFCFCF",
"y.	c #8E8E8E",
"z.	c #E5E5E5",
"A.	c #B8B8B8",
"B.	c #D8D8D8",
"C.	c #BBBCBD",
"D.	c #2C2D2D",
"E.	c #969797",
"F.	c #EDEEEE",
"G.	c #ACADAE",
"H.	c #222222",
"I.	c #8C8D8E",
"J.	c #F4F4F4",
"K.	c #8A8A8A",
"L.	c #B4B4B4",
"M.	c #1E1E1E",
"N.	c #3A3A3A",
"O.	c #575757",
"P.	c #E6E7E8",
"Q.	c #ACADAD",
"R.	c #DFE1E1",
"S.	c #878788",
"T.	c #B6B6B6",
"U.	c #F0F0F0",
"V.	c #4D4D4D",
"W.	c #7C7C7C",
"X.	c #CDCDCD",
"Y.	c #E4E5E5",
"Z.	c #929393",
"`.	c #E6E6E6",
" +	c #D4D6D6",
".+	c #A0A0A0",
"++	c #CCCCCC",
"@+	c #AEAEAE",
"#+	c #404040",
"$+	c #DCDCDC",
"%+	c #E4E5E6",
"&+	c #747576",
"*+	c #ECECEC",
"=+	c #D7D8D9",
"-+	c #202020",
";+	c #606060",
">+	c #EAEAEA",
",+	c #ADADAD",
"'+	c #909090",
")+	c #646464",
"!+	c #EFF0F0",
"~+	c #B2B4B5",
"{+	c #151516",
"]+	c #7C7D7D",
"^+	c #5F6061",
"/+	c #0C0C0C",
"(+	c #EDEDED",
"_+	c #9A9A9A",
":+	c #F6F6F6",
"<+	c #C1C1C1",
"[+	c #666666",
"}+	c #9B9B9B",
"|+	c #DADBDC",
"1+	c #C9CBCC",
"2+	c #ECEDED",
"3+	c #F4F5F5",
"4+	c #6C6D6E",
"5+	c #B1B2B2",
"6+	c #E8E8E8",
"7+	c #AFAFAF",
"8+	c #DDDDDD",
"9+	c #D3D3D3",
"0+	c #FFFBF8",
"a+	c #FCDBBD",
"b+	c #FEF8F2",
"c+	c #DDDEDF",
"d+	c #F7F8F8",
"e+	c #FEFAFB",
"f+	c #FCF3F4",
"g+	c #B3B3B3",
"h+	c #FFFAF6",
"i+	c #FCD8B8",
"j+	c #FAB456",
"k+	c #FAAF40",
"l+	c #FCD7B5",
"m+	c #FAEAEC",
"n+	c #EFB9C2",
"o+	c #EFB7C0",
"p+	c #F0BBC3",
"q+	c #FBF1F2",
"r+	c #515151",
"s+	c #6A6A6A",
"t+	c #FEF1E8",
"u+	c #FBBB71",
"v+	c #FAB457",
"w+	c #F8E1E4",
"x+	c #F9E8EA",
"y+	c #B9BABA",
"z+	c #9FA0A2",
"A+	c #F2F2F3",
"B+	c #FEECDE",
"C+	c #FCD2AC",
"D+	c #FAB65E",
"E+	c #FDDFC5",
"F+	c #FAECEE",
"G+	c #F9E5E8",
"H+	c #FBEFF1",
"I+	c #CFD0D2",
"J+	c #363737",
"K+	c #272829",
"L+	c #B1B3B5",
"M+	c #E3E3E4",
"N+	c #FEEBDC",
"O+	c #C8C9CB",
"P+	c #6D6F70",
"Q+	c #4A4B4C",
"R+	c #B6B8BA",
"S+	c #CACCCD",
"T+	c #F1F2F2",
"U+	c #BEC0C2",
"V+	c #87898A",
"W+	c #5E5F60",
"X+	c #B6B7B9",
"Y+	c #CFD1D2",
"Z+	c #F0F1F1",
"`+	c #919394",
" @	c #48494A",
".@	c #AEB0B2",
"+@	c #C5C7C9",
"@@	c #E0E1E1",
"#@	c #F3F4F4",
"$@	c #EDEDEE",
"%@	c #F7F7F8",
"&@	c #EEEEEF",
"*@	c #C3C5C6",
"=@	c #CBCCCE",
"-@	c #B9BBBD",
";@	c #7D7F80",
">@	c #272828",
",@	c #949597",
"'@	c #C7C9CA",
")@	c #D9DADB",
"!@	c #CACBCD",
"~@	c #D7D8DA",
"{@	c #ADAFB0",
"]@	c #595A5B",
"^@	c #5C5D5E",
"/@	c #A5A7A9",
"(@	c #B4B6B8",
"_@	c #808283",
":@	c #1B1B1C",
"<@	c #5A5B5C",
"[@	c #969799",
"}@	c #A5A6A8",
"|@	c #787A7B",
"1@	c #222223",
"2@	c #111111",
"3@	c #666768",
"4@	c #88898B",
"5@	c #9D9FA0",
"6@	c #A9ABAD",
"7@	c #BABCBE",
"8@	c #ADAFB1",
"9@	c #929395",
"0@	c #3C3D3E",
"                                  . +                                                               ",
"              @ + +             # $ % +                                                             ",
"              # & * +         # # # = + -                                                           ",
"              # # ; >       , # # # ' + ) ! ! ! ! ! ! !                                             ",
"              # # # # ~ ! { ] # # ^ / + ( _ _ : < [ } ! ! ! !                                       ",
"              # # # # | 1 2 # # # 3 + 4 5 5 5 5 5 5 5 6 7 8 ! ! !                                   ",
"                # # # # 9 0 # # a b c d e f g h i 5 5 5 5 5 j k ! !                                 ",
"              l m # # # n # # ; o + p q r r r s t 5 5 5 5 5 5 5 u v ! !                             ",
"            ! w x # # # y # z A + B r r r C D E 5 5 5 5 5 5 5 5 5 F ! ! !                           ",
"          ! G H I J # # # ] > + K r r L M N 5 5 5 5 5 5 5 5 5 5 O P Q ! ! !                         ",
"        ! R S 5 5 T # # U = + K r V W X 5 5 5 5 5 5 5 5 5 5 5 Y Z ` j  ...!                         ",
"      ! +.Y 5 5 5 5 @.#.A + $.%.&.5 5 5 5 5 5 5 5 5 5 5 5 5 Y Z *.=.-.;.>.,.!                       ",
"      ! '.5 5 5 5 5 ).!.~.{.].5 5 5 5 5 5 5 5 5 5 5 5 5 5 ^./.(.E 5 _.F 5 :.<.!                     ",
"    ! [.>.5 5 5 5 5 5 }.|.5 5 5 5 5 5 5 5 5 5 5 5 5 5 5 1.2.-.5 5 u ! G ].5 3.!                     ",
"    ! 4.5 5 5 5 5 5 5 5 5 5 5 5 5 5 5 5 5 5 5 5 5 5 5 5.[.6.5 5 7.v Q 8.1.5 9.0.!           !       ",
"  ! a.b.5 5 5 5 5 5 5 5 5 5 5 5 5 5 5 5 5 5 5 5 5 5 c.d.S 5 5 =.d.e.=.f.g.5 5 (.!       ! h._ _.    ",
"  ! i.5 5 5 5 5 5 5 5 5 5 j.5 5 5 5 5 5 5 5 5 5 5 [ 8.=.5 5 9.k.l.=.S m.n.5 5 : !     ! ! o.p.!     ",
"  ! q.5 5 5 r.s.t.5 5 X u.v.w.5 5 5 5 5 5 5 5 5 x.y.E 5 5 H o.O 5 z.G A.5 5 5 b.! ! ! ! ! ! ! !     ",
"  ! B.5 5 6 C.D.E.5 5 F.G.H.I.j.5 5 5 5 5 5 5 J.K.=.5 5 5 J.5 =.L.M.N.7 5 5 5 5 O.! ! ! ! ! !       ",
"  ! _ 5 5 P.Q.F ! H 5 R.S.1.! j 5 5 5 5 5 5 5 T.U.5 5 5 5 9.q.V.Q _ W.X.5 5 5 5 W.! ! ! !           ",
"  ! _ 5 5 Y.Z.f.! `.5  +.+j ! ++5 5 5 5 5 5 5 1.5 5 5 =.X.@+++J.5 =.#+H 5 5 5 5 W.! ! !             ",
"  ! $+5 5 %+&+! ! *+5 =+-+;+! X.5 5 5 5 5 5 >+6 5 5 5 5 5 5 5 5 5 ,+'+5 5 5 5 5 )+! ! ! ! ! !       ",
"  ! -.5 5 !+~+{+]+X 5 M ^+! /+:.5 5 5 5 5 5 J.5 5 5 5 5 5 5 5 (+_+k.:+5 5 5 5 E ! ! ! ! ! ! p.<+[+  ",
"  ! }+5 5 X |+1+2+5 5 3+C.4+5+5 5 5 5 5 5 5 5 5 5 5 E 6+6.7 @+7+8+5 5 5 5 5 5 O !     ! ! ! G 9+h.! ",
"  ! m.j.5 5 X b.0+a+b+5 W c+d+5 e+f+).5 5 5 5 5 5 5 5 5 5 5 5 5 5 5 5 5 5 5 5 g+!       ! ! ! ! !   ",
"    ! ^.5 5 h+i+j+k+l+5 5 5 5 m+n+o+p+q+5 5 5 5 5 5 5 5 5 5 5 5 5 5 5 5 5 5 >.r+!             !     ",
"    ! s+9.t+u+k+k+k+v+0+5 5 5 w+o+o+o+x+5 5 5 5 5 5 5 5 5 5 5 5 5 5 5 5 5 5 y+!                     ",
"      ! z+A+I B+C+D+k+E+5 5 5 5 F+G+H+5 5 5 5 5 5 5 5 5 5 5 5 5 5 5 5 5 j.I+J+!                     ",
"      ! K+L+M+5 5 I N+i+5 5 5 5 5 5 5 5 5 5 5 5 5 5 5 5 5 5 5 5 5 b.&.A+O+P+!                       ",
"        ! Q+R+S+T+5 5 5 5 5 5 5 5 5 5 5 5 5 5 5 5 5 5 5 5 5 5 5 t U+r r V+! !                       ",
"          ! W+X+r Y+U.5 5 5 5 5 5 5 5 5 5 5 5 5 5 5 5 5 >.5 5 Z+U+r r `+! ! !                       ",
"            !  @.@r r +@@@t #@$@i %@5 5 5 5 5 5 5 5 &@L r *@=@r r -@;@! ! ! ! ! !                   ",
"              ! >@,@r r r r r r r '@:.i )@!@r =@i ~@r r r r r r {@]@! !       ! ! ! !               ",
"                ! ! ^@/@r r r r r r r r r r r r r r r r r r (@_@:@! ! !           !                 ",
"                  ! ! ! <@[@R+r r r r r r r r r r r r r }@|@1@! !   ! ! ! !                         ",
"                      ! ! ! 2@3@4@5@6@R+r r 7@8@/@9@&+0@! ! !           ! ! !                       ",
"                            ! ! ! ! ! ! ! ! ! ! ! ! ! !                     !                       ",
"                                      ! ! ! ! !                                                     ",
"                                                                                                    "};
