/* XPM */
static xpm_row_t const special_bird_frame4_xpm[] = {
"50 39 303 2",
"  	c None",
". 	c #A30405",
"+ 	c #990000",
"@ 	c #C20F15",
"# 	c #EC1C24",
"$ 	c #E41A21",
"% 	c #9F0203",
"& 	c #D7161D",
"* 	c #A40406",
"= 	c #BB0D12",
"- 	c #890000",
"; 	c #E81B23",
"> 	c #BA0C11",
", 	c #DF1A21",
"' 	c #B40A0E",
") 	c #730000",
"! 	c #000000",
"~ 	c #BB1218",
"{ 	c #520406",
"] 	c #EB1C24",
"^ 	c #E61A22",
"/ 	c #9B0101",
"( 	c #DCD1D1",
"_ 	c #E7E7E7",
": 	c #DADADA",
"< 	c #CACACA",
"[ 	c #ABABAB",
"} 	c #777777",
"| 	c #E11A22",
"1 	c #4D4E4E",
"2 	c #C46869",
"3 	c #C31015",
"4 	c #BB8B8B",
"5 	c #FFFFFF",
"6 	c #F5F5F5",
"7 	c #CBCBCB",
"8 	c #7F7F7F",
"9 	c #F8E6E6",
"0 	c #EF6A6C",
"a 	c #DE181F",
"b 	c #9A0000",
"c 	c #9F3838",
"d 	c #F2ECEC",
"e 	c #E7E7E8",
"f 	c #CED0D1",
"g 	c #BCBEC0",
"h 	c #C2C3C5",
"i 	c #E7E8E8",
"j 	c #E4E4E4",
"k 	c #8C8C8C",
"l 	c #3A0203",
"m 	c #E41B22",
"n 	c #F5B2B3",
"o 	c #A60507",
"p 	c #CFBCBD",
"q 	c #C6C8C9",
"r 	c #BBBDBF",
"s 	c #C3C4C6",
"t 	c #F1F1F2",
"u 	c #D9D9D9",
"v 	c #5A5A5A",
"w 	c #454545",
"x 	c #DEA4A5",
"y 	c #ED2F35",
"z 	c #EA1B23",
"A 	c #B2090E",
"B 	c #AD8788",
"C 	c #BFC1C3",
"D 	c #DEDFE0",
"E 	c #FCFCFC",
"F 	c #F6F6F6",
"G 	c #8D8D8D",
"H 	c #616161",
"I 	c #EFEFEF",
"J 	c #FFFEFE",
"K 	c #EF7475",
"L 	c #A87D7E",
"M 	c #C3C5C7",
"N 	c #E3E4E5",
"O 	c #FBFBFC",
"P 	c #FEFEFE",
"Q 	c #A9A9A9",
"R 	c #535353",
"S 	c #F1F1F1",
"T 	c #FBE4E4",
"U 	c #EA1C23",
"V 	c #CDCFD0",
"W 	c #EAEBEB",
"X 	c #A4A4A4",
"Y 	c #151515",
"Z 	c #E2E2E2",
"` 	c #F5B3B3",
" .	c #E91B23",
"..	c #AB8687",
"+.	c #D6D7D8",
"@.	c #F3F3F3",
"#.	c #FBFBFB",
"$.	c #7D7D7D",
"%.	c #BABABA",
"&.	c #FEFBFB",
"*.	c #BD6F6F",
"=.	c #9B292A",
"-.	c #CFBDBE",
";.	c #F7F7F7",
">.	c #EEEEEE",
",.	c #383838",
"'.	c #5C5C5C",
").	c #F2EAEA",
"!.	c #F2EBEB",
"~.	c #B7B7B7",
"{.	c #C8C8C8",
"].	c #F8F8F8",
"^.	c #3E3E3E",
"/.	c #323232",
"(.	c #F9F9F9",
"_.	c #A7A7A7",
":.	c #BCBCBC",
"<.	c #858585",
"[.	c #959595",
"}.	c #FDFDFD",
"|.	c #A2A2A2",
"1.	c #949494",
"2.	c #C2C2C2",
"3.	c #E7E8E9",
"4.	c #DBDCDD",
"5.	c #F5F6F6",
"6.	c #DCDEDF",
"7.	c #D0D2D3",
"8.	c #EEEFEF",
"9.	c #D8D8D8",
"0.	c #BBBCBD",
"a.	c #2C2D2D",
"b.	c #969797",
"c.	c #EDEEEE",
"d.	c #ACADAE",
"e.	c #222222",
"f.	c #8C8D8E",
"g.	c #575757",
"h.	c #E6E7E8",
"i.	c #ACADAD",
"j.	c #B2B2B2",
"k.	c #DFE1E1",
"l.	c #878788",
"m.	c #C3C3C3",
"n.	c #7C7C7C",
"o.	c #E4E5E5",
"p.	c #929393",
"q.	c #ACACAC",
"r.	c #E6E6E6",
"s.	c #D4D6D6",
"t.	c #A0A0A0",
"u.	c #CCCCCC",
"v.	c #DCDCDC",
"w.	c #E4E5E6",
"x.	c #747576",
"y.	c #ECECEC",
"z.	c #D7D8D9",
"A.	c #202020",
"B.	c #606060",
"C.	c #CDCDCD",
"D.	c #646464",
"E.	c #C7C7C7",
"F.	c #EFF0F0",
"G.	c #B2B4B5",
"H.	c #151516",
"I.	c #7C7D7D",
"J.	c #5F6061",
"K.	c #0C0C0C",
"L.	c #C1C1C1",
"M.	c #666666",
"N.	c #9B9B9B",
"O.	c #DADBDC",
"P.	c #C9CBCC",
"Q.	c #ECEDED",
"R.	c #F4F5F5",
"S.	c #6C6D6E",
"T.	c #B1B2B2",
"U.	c #DFDFDF",
"V.	c #D3D3D3",
"W.	c #464646",
"X.	c #FFFBF8",
"Y.	c #FCDBBD",
"Z.	c #FEF8F2",
"`.	c #DDDEDF",
" +	c #F7F8F8",
".+	c #FEFAFB",
"++	c #FCF3F4",
"@+	c #E9E9E9",
"#+	c #B3B3B3",
"$+	c #D2D2D2",
"%+	c #FFFAF6",
"&+	c #FCD8B8",
"*+	c #FAB456",
"=+	c #FAAF40",
"-+	c #FCD7B5",
";+	c #FAEAEC",
">+	c #EFB9C2",
",+	c #EFB7C0",
"'+	c #F0BBC3",
")+	c #FBF1F2",
"!+	c #767676",
"~+	c #FAFAFA",
"{+	c #979797",
"]+	c #636363",
"^+	c #D1D1D1",
"/+	c #515151",
"(+	c #6A6A6A",
"_+	c #FEF1E8",
":+	c #FBBB71",
"<+	c #FAB457",
"[+	c #F8E1E4",
"}+	c #F9E8EA",
"|+	c #7E7E7E",
"1+	c #BEBEBE",
"2+	c #E5E5E5",
"3+	c #C6C6C6",
"4+	c #3A3A3A",
"5+	c #B5B5B5",
"6+	c #B9BABA",
"7+	c #9FA0A2",
"8+	c #F2F2F3",
"9+	c #FEECDE",
"0+	c #FCD2AC",
"a+	c #FAB65E",
"b+	c #FDDFC5",
"c+	c #FAECEE",
"d+	c #F9E5E8",
"e+	c #FBEFF1",
"f+	c #A6A6A6",
"g+	c #434343",
"h+	c #E1E1E1",
"i+	c #737373",
"j+	c #A3A3A3",
"k+	c #6B6B6B",
"l+	c #CFD0D2",
"m+	c #363737",
"n+	c #272829",
"o+	c #B1B3B5",
"p+	c #E3E3E4",
"q+	c #FEEBDC",
"r+	c #2E2E2E",
"s+	c #939393",
"t+	c #D7D7D7",
"u+	c #A5A5A5",
"v+	c #494949",
"w+	c #C8C9CB",
"x+	c #6D6F70",
"y+	c #4A4B4C",
"z+	c #B6B8BA",
"A+	c #CACCCD",
"B+	c #F1F2F2",
"C+	c #DEDEDE",
"D+	c #CECECE",
"E+	c #656668",
"F+	c #87898A",
"G+	c #5E5F60",
"H+	c #B6B7B9",
"I+	c #CFD1D2",
"J+	c #F0F0F0",
"K+	c #838484",
"L+	c #181818",
"M+	c #D4D4D4",
"N+	c #E3E3E3",
"O+	c #595A5B",
"P+	c #919394",
"Q+	c #48494A",
"R+	c #AEB0B2",
"S+	c #C5C7C9",
"T+	c #E0E1E1",
"U+	c #F3F4F4",
"V+	c #EDEDEE",
"W+	c #F7F7F8",
"X+	c #EEEEEF",
"Y+	c #BABCBE",
"Z+	c #6E6F70",
"`+	c #080808",
" @	c #131414",
".@	c #272828",
"+@	c #949597",
"@@	c #C7C9CA",
"#@	c #D9DADB",
"$@	c #CACBCD",
"%@	c #CBCCCE",
"&@	c #D7D8DA",
"*@	c #B8BABC",
"=@	c #4E4F50",
"-@	c #5C5D5E",
";@	c #A5A7A9",
">@	c #97999B",
",@	c #414141",
"'@	c #5A5B5C",
")@	c #969799",
"!@	c #A5A6A8",
"~@	c #787A7B",
"{@	c #222223",
"]@	c #111111",
"^@	c #666768",
"/@	c #88898B",
"(@	c #9D9FA0",
"_@	c #A9ABAD",
":@	c #ADAFB1",
"<@	c #929395",
"[@	c #3C3D3E",
"                                  . +                                                               ",
"              @ + +             # $ % +                                                             ",
"              # & * +         # # # = + -                                                           ",
"              # # ; >       , # # # ' + ) ! ! ! ! ! ! !                                             ",
"              # # # # ~ ! { ] # # ^ / + ( _ _ : < [ } ! ! ! !                                       ",
"              # # # # | 1 2 # # # 3 + 4 5 5 5 5 5 5 5 6 7 8 ! ! !                                   ",
"                # # # # 9 0 # # a b c d e f g h i 5 5 5 5 5 j k ! !                                 ",
"              l m # # # n # # ; o + p q r r r s t 5 5 5 5 5 5 5 u v ! !                             ",
"            ! w x # # # y # z A + B r r r C D E 5 5 5 5 5 5 5 5 5 F G ! !                           ",
"          ! H I J K # # # ] > + L r r M N O 5 5 5 5 5 5 5 5 5 5 5 5 P Q ! !                         ",
"        ! R S 5 5 T # # U = + L r V W P 5 5 5 5 5 5 5 5 5 5 5 5 5 5 5 5 X !                         ",
"      ! Y Z 5 5 5 5 `  .A + ..+.@.5 5 5 5 5 5 5 5 5 5 5 5 5 5 5 5 5 5 5 #.$.!                       ",
"      ! %.5 5 5 5 5 &.*.=.-.;.5 5 5 5 5 5 5 5 5 5 5 5 5 5 5 5 5 5 5 5 5 5 >.,.!                     ",
"    ! '.#.5 5 5 5 5 5 ).!.5 5 5 5 5 5 5 5 5 5 5 5 5 5 5 5 5 5 5 5 5 5 5 5 5 ~.!                     ",
"    ! {.5 5 5 5 5 5 5 5 5 5 5 5 5 5 5 5 5 5 5 5 5 5 5 5 5 5 5 5 5 5 5 5 5 5 ].^.!           !       ",
"  ! /.(.5 5 5 5 5 5 5 5 5 5 5 5 5 5 5 5 5 5 5 5 5 5 5 5 5 5 5 5 5 5 5 5 5 5 5 _.!       ! :._ <.    ",
"  ! [.5 5 5 5 5 5 5 5 5 5 }.5 5 5 5 5 5 5 5 5 5 5 5 5 5 5 5 5 5 5 5 5 5 5 5 5 : !     ! ! |.1.!     ",
"  ! 2.5 5 5 3.4.5.5 5 P 6.7.8.5 5 5 5 5 5 5 5 5 5 5 5 5 5 5 5 5 5 5 5 5 5 5 5 (.! ! ! ! ! ! ! !     ",
"  ! 9.5 5 6 0.a.b.5 5 c.d.e.f.}.5 5 5 5 5 5 5 5 5 5 5 5 5 5 5 5 5 5 5 5 5 5 5 5 g.! ! ! ! ! !       ",
"  ! _ 5 5 h.i.j.! I 5 k.l.m.! j 5 5 5 5 5 5 5 5 5 5 5 5 5 5 5 5 5 5 5 5 5 5 5 5 n.! ! ! !           ",
"  ! _ 5 5 o.p.q.! r.5 s.t.j ! u.5 5 5 5 5 5 5 5 5 5 5 5 5 5 5 5 5 5 5 5 5 5 5 5 n.! ! !             ",
"  ! v.5 5 w.x.! ! y.5 z.A.B.! C.5 5 5 5 5 5 5 5 5 5 5 5 5 5 5 5 5 5 5 5 5 5 5 5 D.! ! ! ! ! !       ",
"  ! E.5 5 F.G.H.I.P 5 N J.! K.>.5 5 5 5 5 5 5 5 5 5 5 5 5 5 5 5 5 5 5 5 5 5 5 E ! ! ! ! ! ! 1.L.M.  ",
"  ! N.5 5 P O.P.Q.5 5 R.0.S.T.5 5 5 5 5 5 5 j 5 5 5 ;.5 5 5 5 5 5 5 5 5 5 5 5 U.!     ! ! ! H V.:.! ",
"  ! W.}.5 5 P (.X.Y.Z.5 W `. +5 .+++&.5 5 5 u.@+5 5 ;.: < Z ;.5 5 5 5 5 5 5 5 #+!       ! ! ! ! !   ",
"    ! $+5 5 %+&+*+=+-+5 5 5 5 ;+>+,+'+)+5 5 I !+~+5 5 5 (.V.{+]+[.^+5 5 5 5 #./+!             !     ",
"    ! (+]._+:+=+=+=+<+X.5 5 5 [+,+,+,+}+5 5 5 j.|+S 5 5 j 1+~.2+3+4+5+5 5 5 6+!                     ",
"      ! 7+8+J 9+0+a+=+b+5 5 5 5 c+d+e+5 5 5 5 P f+g+^+5 @+h+2+i+j+u.k+5 }.l+m+!                     ",
"      ! n+o+p+5 5 J q+&+5 5 5 5 5 5 5 5 5 5 5 5 5 2.r+s+@.t+<.h+u+v+$.8+w+x+!                       ",
"        ! y+z+A+B+5 5 5 5 5 5 5 5 5 5 5 5 5 5 5 5 5 _ M.v+C+r.R D+|+E+r F+! !                       ",
"          ! G+H+r I+J+5 5 5 5 5 5 5 5 5 5 5 5 5 5 5 5 (.K+L+M+N+,.[ O+P+! ! !                       ",
"            ! Q+R+r r S+T+t U+V+i W+5 5 5 5 5 5 5 5 X+M Y+Z+,.>.[ `+ @! ! ! ! ! !                   ",
"              ! .@+@r r r r r r r @@>.i #@$@r %@i &@r r r *@=@|.7 ! ! !       ! ! ! !               ",
"                ! ! -@;@r r r r r r r r r r r r r r r r r r >@,@s+! ! !           !                 ",
"                  ! ! ! '@)@z+r r r r r r r r r r r r r !@~@{@! ! ! ! ! ! !                         ",
"                      ! ! ! ]@^@/@(@_@z+r r Y+:@;@<@x.[@! ! ! !         ! ! !                       ",
"                            ! ! ! ! ! ! ! ! ! ! ! ! ! !                     !                       ",
"                                      ! ! ! ! !                                                     ",
"                                                                                                    "};
