/* XPM */
static xpm_row_t const special_bird_frame2_xpm[] = {
"50 39 311 2",
"  	c None",
". 	c #A30405",
"+ 	c #990000",
"@ 	c #C20F15",
"# 	c #EC1C24",
"$ 	c #E41A21",
"% 	c #9F0203",
"& 	c #D7161D",
"* 	c #A40406",
"= 	c #BB0D12",
"- 	c #890000",
"; 	c #E81B23",
"> 	c #BA0C11",
", 	c #DF1A21",
"' 	c #B40A0E",
") 	c #730000",
"! 	c #000000",
"~ 	c #BB1218",
"{ 	c #520406",
"] 	c #EB1C24",
"^ 	c #E61A22",
"/ 	c #9B0101",
"( 	c #DCD1D1",
"_ 	c #E7E7E7",
": 	c #DADADA",
"< 	c #CACACA",
"[ 	c #ABABAB",
"} 	c #777777",
"| 	c #E11A22",
"1 	c #4D4E4E",
"2 	c #C46869",
"3 	c #C31015",
"4 	c #BB8B8B",
"5 	c #FFFFFF",
"6 	c #F5F5F5",
"7 	c #CBCBCB",
"8 	c #7F7F7F",
"9 	c #F8E6E6",
"0 	c #EF6A6C",
"a 	c #DE181F",
"b 	c #9A0000",
"c 	c #9F3838",
"d 	c #F2ECEC",
"e 	c #E7E7E8",
"f 	c #CED0D1",
"g 	c #BCBEC0",
"h 	c #C2C3C5",
"i 	c #E7E8E8",
"j 	c #E4E4E4",
"k 	c #8C8C8C",
"l 	c #3A0203",
"m 	c #E41B22",
"n 	c #F5B2B3",
"o 	c #A60507",
"p 	c #CFBCBD",
"q 	c #C6C8C9",
"r 	c #BBBDBF",
"s 	c #C3C4C6",
"t 	c #F1F1F2",
"u 	c #D9D9D9",
"v 	c #5A5A5A",
"w 	c #454545",
"x 	c #DEA4A5",
"y 	c #ED2F35",
"z 	c #EA1B23",
"A 	c #B2090E",
"B 	c #AD8788",
"C 	c #BFC1C3",
"D 	c #DEDFE0",
"E 	c #FCFCFC",
"F 	c #F6F6F6",
"G 	c #8D8D8D",
"H 	c #616161",
"I 	c #EFEFEF",
"J 	c #FFFEFE",
"K 	c #EF7475",
"L 	c #A87D7E",
"M 	c #C3C5C7",
"N 	c #E3E4E5",
"O 	c #FBFBFC",
"P 	c #FEFEFE",
"Q 	c #A9A9A9",
"R 	c #535353",
"S 	c #F1F1F1",
"T 	c #FBE4E4",
"U 	c #EA1C23",
"V 	c #CDCFD0",
"W 	c #EAEBEB",
"X 	c #A4A4A4",
"Y 	c #151515",
"Z 	c #E2E2E2",
"` 	c #F5B3B3",
" .	c #E91B23",
"..	c #AB8687",
"+.	c #D6D7D8",
"@.	c #F3F3F3",
"#.	c #FBFBFB",
"$.	c #7E7E7E",
"%.	c #BABABA",
"&.	c #FEFBFB",
"*.	c #BD6F6F",
"=.	c #9B292A",
"-.	c #CFBDBE",
";.	c #F7F7F7",
">.	c #EEEEEE",
",.	c #383838",
"'.	c #5C5C5C",
").	c #F2EAEA",
"!.	c #F2EBEB",
"~.	c #B7B7B7",
"{.	c #C8C8C8",
"].	c #F8F8F8",
"^.	c #3E3E3E",
"/.	c #323232",
"(.	c #F9F9F9",
"_.	c #A7A7A7",
":.	c #BCBCBC",
"<.	c #858585",
"[.	c #959595",
"}.	c #FDFDFD",
"|.	c #9B9B9B",
"1.	c #A2A2A2",
"2.	c #949494",
"3.	c #C2C2C2",
"4.	c #E7E8E9",
"5.	c #DBDCDD",
"6.	c #F5F6F6",
"7.	c #DCDEDF",
"8.	c #D0D2D3",
"9.	c #EEEFEF",
"0.	c #E3E3E3",
"a.	c #C0C0C0",
"b.	c #898989",
"c.	c #010101",
"d.	c #161616",
"e.	c #D8D8D8",
"f.	c #BBBCBD",
"g.	c #2C2D2D",
"h.	c #969797",
"i.	c #EDEEEE",
"j.	c #ACADAE",
"k.	c #222222",
"l.	c #8C8D8E",
"m.	c #E6E6E6",
"n.	c #C7C7C7",
"o.	c #787878",
"p.	c #030303",
"q.	c #393939",
"r.	c #939393",
"s.	c #B4B4B4",
"t.	c #575757",
"u.	c #E6E7E8",
"v.	c #ACADAD",
"w.	c #B2B2B2",
"x.	c #DFE1E1",
"y.	c #878788",
"z.	c #C3C3C3",
"A.	c #A6A6A6",
"B.	c #7D7D7D",
"C.	c #B9B9B9",
"D.	c #CECECE",
"E.	c #E9E9E9",
"F.	c #373737",
"G.	c #CCCCCC",
"H.	c #7C7C7C",
"I.	c #E4E5E5",
"J.	c #929393",
"K.	c #ACACAC",
"L.	c #D4D6D6",
"M.	c #A0A0A0",
"N.	c #ADADAD",
"O.	c #E5E5E5",
"P.	c #D7D7D7",
"Q.	c #7B7B7B",
"R.	c #B0B0B0",
"S.	c #5D5D5D",
"T.	c #DCDCDC",
"U.	c #E4E5E6",
"V.	c #747576",
"W.	c #ECECEC",
"X.	c #D7D8D9",
"Y.	c #202020",
"Z.	c #606060",
"`.	c #CDCDCD",
" +	c #EAEAEA",
".+	c #D1D1D1",
"++	c #C6C6C6",
"@+	c #9C9C9C",
"#+	c #6D6D6D",
"$+	c #3A3A3A",
"%+	c #646464",
"&+	c #EFF0F0",
"*+	c #B2B4B5",
"=+	c #151516",
"-+	c #7C7D7D",
";+	c #5F6061",
">+	c #0C0C0C",
",+	c #F4F4F4",
"'+	c #F0F0F0",
")+	c #B3B3B3",
"!+	c #D0D0D0",
"~+	c #8E8E8E",
"{+	c #929292",
"]+	c #C1C1C1",
"^+	c #666666",
"/+	c #DADBDC",
"(+	c #C9CBCC",
"_+	c #ECEDED",
":+	c #F4F5F5",
"<+	c #6C6D6E",
"[+	c #B1B2B2",
"}+	c #E8E8E8",
"|+	c #A5A5A5",
"1+	c #868686",
"2+	c #E1E1E1",
"3+	c #DFDFDF",
"4+	c #D3D3D3",
"5+	c #464646",
"6+	c #FFFBF8",
"7+	c #FCDBBD",
"8+	c #FEF8F2",
"9+	c #DDDEDF",
"0+	c #F7F8F8",
"a+	c #FEFAFB",
"b+	c #FCF3F4",
"c+	c #D2D2D2",
"d+	c #FFFAF6",
"e+	c #FCD8B8",
"f+	c #FAB456",
"g+	c #FAAF40",
"h+	c #FCD7B5",
"i+	c #FAEAEC",
"j+	c #EFB9C2",
"k+	c #EFB7C0",
"l+	c #F0BBC3",
"m+	c #FBF1F2",
"n+	c #515151",
"o+	c #6A6A6A",
"p+	c #FEF1E8",
"q+	c #FBBB71",
"r+	c #FAB457",
"s+	c #F8E1E4",
"t+	c #F9E8EA",
"u+	c #B9BABA",
"v+	c #9FA0A2",
"w+	c #F2F2F3",
"x+	c #FEECDE",
"y+	c #FCD2AC",
"z+	c #FAB65E",
"A+	c #FDDFC5",
"B+	c #FAECEE",
"C+	c #F9E5E8",
"D+	c #FBEFF1",
"E+	c #CFD0D2",
"F+	c #363737",
"G+	c #272829",
"H+	c #B1B3B5",
"I+	c #E3E3E4",
"J+	c #FEEBDC",
"K+	c #C8C9CB",
"L+	c #6D6F70",
"M+	c #4A4B4C",
"N+	c #B6B8BA",
"O+	c #CACCCD",
"P+	c #F1F2F2",
"Q+	c #BEC0C2",
"R+	c #87898A",
"S+	c #5E5F60",
"T+	c #B6B7B9",
"U+	c #CFD1D2",
"V+	c #F0F1F1",
"W+	c #919394",
"X+	c #48494A",
"Y+	c #AEB0B2",
"Z+	c #C5C7C9",
"`+	c #E0E1E1",
" @	c #F3F4F4",
".@	c #EDEDEE",
"+@	c #F7F7F8",
"@@	c #EEEEEF",
"#@	c #C3C5C6",
"$@	c #CBCCCE",
"%@	c #B9BBBD",
"&@	c #7D7F80",
"*@	c #272828",
"=@	c #949597",
"-@	c #C7C9CA",
";@	c #D9DADB",
">@	c #CACBCD",
",@	c #D7D8DA",
"'@	c #ADAFB0",
")@	c #595A5B",
"!@	c #5C5D5E",
"~@	c #A5A7A9",
"{@	c #B4B6B8",
"]@	c #808283",
"^@	c #1B1B1C",
"/@	c #5A5B5C",
"(@	c #969799",
"_@	c #A5A6A8",
":@	c #787A7B",
"<@	c #222223",
"[@	c #111111",
"}@	c #666768",
"|@	c #88898B",
"1@	c #9D9FA0",
"2@	c #A9ABAD",
"3@	c #BABCBE",
"4@	c #ADAFB1",
"5@	c #929395",
"6@	c #3C3D3E",
"                                  . +                                                               ",
"              @ + +             # $ % +                                                             ",
"              # & * +         # # # = + -                                                           ",
"              # # ; >       , # # # ' + ) ! ! ! ! ! ! !                                             ",
"              # # # # ~ ! { ] # # ^ / + ( _ _ : < [ } ! ! ! !                                       ",
"              # # # # | 1 2 # # # 3 + 4 5 5 5 5 5 5 5 6 7 8 ! ! !                                   ",
"                # # # # 9 0 # # a b c d e f g h i 5 5 5 5 5 j k ! !                                 ",
"              l m # # # n # # ; o + p q r r r s t 5 5 5 5 5 5 5 u v ! !                             ",
"            ! w x # # # y # z A + B r r r C D E 5 5 5 5 5 5 5 5 5 F G ! !                           ",
"          ! H I J K # # # ] > + L r r M N O 5 5 5 5 5 5 5 5 5 5 5 5 P Q ! !                         ",
"        ! R S 5 5 T # # U = + L r V W P 5 5 5 5 5 5 5 5 5 5 5 5 5 5 5 5 X !                         ",
"      ! Y Z 5 5 5 5 `  .A + ..+.@.5 5 5 5 5 5 5 5 5 5 5 5 5 5 5 5 5 5 5 #.$.!                       ",
"      ! %.5 5 5 5 5 &.*.=.-.;.5 5 5 5 5 5 5 5 5 5 5 5 5 5 5 5 5 5 5 5 5 5 >.,.!                     ",
"    ! '.#.5 5 5 5 5 5 ).!.5 5 5 5 5 5 5 5 5 5 5 5 5 5 5 5 5 5 5 5 5 5 5 5 5 ~.!                     ",
"    ! {.5 5 5 5 5 5 5 5 5 5 5 5 5 5 5 5 5 5 5 5 5 5 5 5 5 5 5 5 5 5 5 5 5 5 ].^.!           !       ",
"  ! /.(.5 5 5 5 5 5 5 5 5 5 5 5 5 5 5 5 5 5 5 5 5 5 5 5 5 5 5 5 5 5 5 5 5 5 P _.!       ! :._ <.    ",
"  ! [.5 5 5 5 5 5 5 5 5 5 }.5 5 5 5 5 5 5 5 5 5 5 5 5 5 5 5 5 5 5 5 5 5 I |._ : !     ! ! 1.2.!     ",
"  ! 3.5 5 5 4.5.6.5 5 P 7.8.9.5 5 5 5 5 5 5 5 5 5 5 5 5 5 5 5 5 }.0.a.b.c.d.6 (.! ! ! ! ! ! ! !     ",
"  ! e.5 5 6 f.g.h.5 5 i.j.k.l.}.5 5 5 5 5 5 5 5 5 5 5 5 m.n.X o.p.q.r.$.! s.5 5 t.! ! ! ! ! !       ",
"  ! _ 5 5 u.v.w.! I 5 x.y.z.! j 5 5 5 5 5 5 5 5 5 _ A.'.B._.C.D.E.;.s.F.! G.5 5 H.! ! ! !           ",
"  ! _ 5 5 I.J.K.! m.5 L.M.j ! G.5 5 5 5 5 5 5 #.K.N.O.5 5 5 ].P.1.Q.R.$.S.6 5 5 H.! ! !             ",
"  ! T.5 5 U.V.! ! W.5 X.Y.Z.! `.5 5 5 5 5 5 5 ~. +5 5 5 (.Z `..+++@+#+$+G.5 5 5 %+! ! ! ! ! !       ",
"  ! n.5 5 &+*+=+-+P 5 N ;+! >+>.5 5 5 5 5 5 ,+'+5 5 5 }.Z G.)+z.!+{.~+{+#.5 5 E ! ! ! ! ! ! 2.]+^+  ",
"  ! |.5 5 P /+(+_+5 5 :+f.<+[+5 5 5 5 5 5 5 5 5 5 5 5 }+`.a.|+1.1+w.2+5 5 5 5 3+!     ! ! ! H 4+:.! ",
"  ! 5+}.5 5 P (.6+7+8+5 W 9+0+5 a+b+&.5 5 5 5 5 5 5 5 5 5 5 5 5 5 5 5 5 5 5 5 )+!       ! ! ! ! !   ",
"    ! c+5 5 d+e+f+g+h+5 5 5 5 i+j+k+l+m+5 5 5 5 5 5 5 5 5 5 5 5 5 5 5 5 5 5 #.n+!             !     ",
"    ! o+].p+q+g+g+g+r+6+5 5 5 s+k+k+k+t+5 5 5 5 5 5 5 5 5 5 5 5 5 5 5 5 5 5 u+!                     ",
"      ! v+w+J x+y+z+g+A+5 5 5 5 B+C+D+5 5 5 5 5 5 5 5 5 5 5 5 5 5 5 5 5 }.E+F+!                     ",
"      ! G+H+I+5 5 J J+e+5 5 5 5 5 5 5 5 5 5 5 5 5 5 5 5 5 5 5 5 5 (.@.w+K+L+!                       ",
"        ! M+N+O+P+5 5 5 5 5 5 5 5 5 5 5 5 5 5 5 5 5 5 5 5 5 5 5 t Q+r r R+! !                       ",
"          ! S+T+r U+'+5 5 5 5 5 5 5 5 5 5 5 5 5 5 5 5 5 #.5 5 V+Q+r r W+! ! !                       ",
"            ! X+Y+r r Z+`+t  @.@i +@5 5 5 5 5 5 5 5 @@M r #@$@r r %@&@! ! ! ! ! !                   ",
"              ! *@=@r r r r r r r -@>.i ;@>@r $@i ,@r r r r r r '@)@! !       ! ! ! !               ",
"                ! ! !@~@r r r r r r r r r r r r r r r r r r {@]@^@! ! !           !                 ",
"                  ! ! ! /@(@N+r r r r r r r r r r r r r _@:@<@! !   ! ! ! !                         ",
"                      ! ! ! [@}@|@1@2@N+r r 3@4@~@5@V.6@! ! !           ! ! !                       ",
"                            ! ! ! ! ! ! ! ! ! ! ! ! ! !                     !                       ",
"                                      ! ! ! ! !                                                     ",
"                                                                                                    "};
