/* XPM */
static xpm_row_t const green_crystal_xpm[] = {
"52 51 238 2",
"  	c None",
". 	c #76EC54",
"+ 	c #68E846",
"@ 	c #5DE53C",
"# 	c #56E034",
"$ 	c #4FDC2E",
"% 	c #4BDA2A",
"& 	c #46D726",
"* 	c #43D524",
"= 	c #3ED321",
"- 	c #71EB4F",
"; 	c #6FEA4D",
"> 	c #68E947",
", 	c #58E136",
"' 	c #4DDB2D",
") 	c #44D625",
"! 	c #40D422",
"~ 	c #42D523",
"{ 	c #3DD220",
"] 	c #33CB1A",
"^ 	c #6DEA4A",
"/ 	c #64E742",
"( 	c #5EE53C",
"_ 	c #5FE53D",
": 	c #56E035",
"< 	c #48D828",
"[ 	c #3ED320",
"} 	c #3DD320",
"| 	c #3BD11F",
"1 	c #32CB1A",
"2 	c #2EC817",
"3 	c #61E540",
"4 	c #57E135",
"5 	c #51DD2F",
"6 	c #55E033",
"7 	c #52DE31",
"8 	c #3AD01E",
"9 	c #31CA19",
"0 	c #2FC918",
"a 	c #2BC616",
"b 	c #70EB4E",
"c 	c #63E741",
"d 	c #4EDC2E",
"e 	c #4DDC2D",
"f 	c #51DE30",
"g 	c #57E236",
"h 	c #46D727",
"i 	c #3BD01F",
"j 	c #32CA19",
"k 	c #31CB19",
"l 	c #2CC616",
"m 	c #6BEA49",
"n 	c #5FE63E",
"o 	c #54DF33",
"p 	c #4FDC2F",
"q 	c #4EDB2E",
"r 	c #42D226",
"s 	c #30C919",
"t 	c #32CB19",
"u 	c #30C918",
"v 	c #2AC516",
"w 	c #6BE54C",
"x 	c #71E84F",
"y 	c #66E446",
"z 	c #5DE03D",
"A 	c #56DF36",
"B 	c #4AD82C",
"C 	c #45D528",
"D 	c #3FD123",
"E 	c #39CF1E",
"F 	c #34C81E",
"G 	c #26C016",
"H 	c #30CA18",
"I 	c #31CB18",
"J 	c #29C415",
"K 	c #5BDD3D",
"L 	c #4DD730",
"M 	c #41D127",
"N 	c #3ECE24",
"O 	c #34CA1C",
"P 	c #32C91A",
"Q 	c #29C217",
"R 	c #20BB15",
"S 	c #1EBB14",
"T 	c #29C416",
"U 	c #2FC917",
"V 	c #27C315",
"W 	c #76EB54",
"X 	c #5EDE40",
"Y 	c #36CD1D",
"Z 	c #2DC617",
"` 	c #27C215",
" .	c #26C215",
"..	c #28C315",
"+.	c #26C116",
"@.	c #1EBA15",
"#.	c #1CB914",
"$.	c #1DB914",
"%.	c #27C115",
"&.	c #2CC716",
"*.	c #24C015",
"=.	c #76EC55",
"-.	c #71E950",
";.	c #4BD62E",
">.	c #25C115",
",.	c #21BF15",
"'.	c #23C015",
").	c #2BC516",
"!.	c #25C016",
"~.	c #1FBC15",
"{.	c #1DBA14",
"].	c #22BE14",
"^.	c #28C415",
"/.	c #26C115",
"(.	c #21BE15",
"_.	c #6FEB4D",
":.	c #6BE849",
"<.	c #43D128",
"[.	c #22BF15",
"}.	c #24C115",
"|.	c #22BE15",
"1.	c #20BD15",
"2.	c #20BE15",
"3.	c #1FBB15",
"4.	c #20BC14",
"5.	c #6EEA4B",
"6.	c #67E845",
"7.	c #62E740",
"8.	c #5BE13A",
"9.	c #37CC1F",
"0.	c #21BD15",
"a.	c #1CB814",
"b.	c #1FBC14",
"c.	c #6DEB4B",
"d.	c #63E641",
"e.	c #5AE238",
"f.	c #5BE339",
"g.	c #4EDA30",
"h.	c #1AB514",
"i.	c #64E741",
"j.	c #57E136",
"k.	c #50DD2F",
"l.	c #55DF33",
"m.	c #47D629",
"n.	c #2DC817",
"o.	c #29C316",
"p.	c #20BC15",
"q.	c #1BB714",
"r.	c #19B114",
"s.	c #1AB313",
"t.	c #1CB714",
"u.	c #1AB414",
"v.	c #75EB53",
"w.	c #6DEA4B",
"x.	c #5DE43B",
"y.	c #3CCF20",
"z.	c #2AC517",
"A.	c #1FBD15",
"B.	c #1BB614",
"C.	c #18AD13",
"D.	c #19B314",
"E.	c #17AB12",
"F.	c #64E743",
"G.	c #53DF32",
"H.	c #50DD30",
"I.	c #39CE1E",
"J.	c #2BC417",
"K.	c #1EBB15",
"L.	c #17A912",
"M.	c #15A212",
"N.	c #16A712",
"O.	c #5AE338",
"P.	c #55E034",
"Q.	c #4AD82B",
"R.	c #2EC51A",
"S.	c #1BB814",
"T.	c #19B214",
"U.	c #16A612",
"V.	c #149B11",
"W.	c #159E11",
"X.	c #149A11",
"Y.	c #49D829",
"Z.	c #45D726",
"`.	c #4CDA2C",
" +	c #3CCD22",
".+	c #1EBA14",
"++	c #1EBC15",
"@+	c #18AF13",
"#+	c #149711",
"$+	c #139410",
"%+	c #139210",
"&+	c #47D827",
"*+	c #37CE1D",
"=+	c #2EC818",
"-+	c #28C216",
";+	c #23BE15",
">+	c #1AB614",
",+	c #17A813",
"'+	c #149E11",
")+	c #129110",
"!+	c #128D0F",
"~+	c #4CDB2B",
"{+	c #36CD1C",
"]+	c #19B213",
"^+	c #17AC13",
"/+	c #17AA13",
"(+	c #16A813",
"_+	c #16A512",
":+	c #159F11",
"<+	c #139610",
"[+	c #128C0F",
"}+	c #10870F",
"|+	c #34CC1B",
"1+	c #2AC515",
"2+	c #23BF15",
"3+	c #1BB514",
"4+	c #19AF13",
"5+	c #15A312",
"6+	c #159F12",
"7+	c #149710",
"8+	c #128D10",
"9+	c #10860F",
"0+	c #10810E",
"a+	c #31CA18",
"b+	c #15A012",
"c+	c #139510",
"d+	c #129010",
"e+	c #118A0F",
"f+	c #10850F",
"g+	c #10800E",
"h+	c #107D0E",
"i+	c #0F7B0E",
"j+	c #15A512",
"k+	c #149C11",
"l+	c #128F10",
"m+	c #10880F",
"n+	c #10820E",
"o+	c #0E790D",
"                                                                                                        ",
"                                                                                                        ",
"                                                                                                        ",
"                                                                                                        ",
"                                                                                                        ",
"                                                                                                        ",
"                                                                                                        ",
"                                                                                                        ",
"                                                                                                        ",
"                                                                                                        ",
"                                                                                                        ",
"                                                                                                        ",
"                                                                                                        ",
"                                                                                                        ",
"                                                                                                        ",
"                                                                                                        ",
"                                                                                                        ",
"                                                                                                        ",
"                                                                                                        ",
"                                                                                                        ",
"                                                                                                        ",
"                                                                                                        ",
"                                                                                                        ",
"                                                                                                        ",
"                                                                                                        ",
"                                                                                                        ",
"                                                                                                        ",
"                                                                                                        ",
"                                                                                      . + @ # $ % & * = ",
"                                                                                    - ; > , ' ) ! ~ { ] ",
"                                                                                  ^ / ( _ : < [ } | 1 2 ",
"                                                                                ^ 3 4 5 6 7 & ! 8 9 0 a ",
"                                                                              b c , d e f g h i j k 0 l ",
"                                                                            . m n , o p 7 q r s 9 t u v ",
"                                                                        w x y z A B C D E F G 2 H I 2 J ",
"                                                                      K L M N O P t t t Q R S T U 0 l V ",
"                                                                    W X Y Z `  ...a 0 +.@.#.$.%.&.l T *.",
"                                                                  =.-.;.Z >.,.'. .).!.~.@.{.{.].J ^./.(.",
"                                                                b _.:.<.T [.,.}.V |.1.2.2.3.#.4.>.>.[.~.",
"                                                              5.6.7.8.9.V *.>. .0.1.2.,.,.~.#.a.0.[.b.  ",
"                                                            c.d.e.f.g.9 ^...` 0.1.2.,.,.,.~.a.h.@.S #.  ",
"                                                          - i.j.k.l.m.9 n.o.p.1.2.,.[.,.,.S q.r.s.t.u.  ",
"                                                        v.w.x.$ e p y.t z.p.2.2.,.[.[.,.A.{.B.C.C.D.E.  ",
"                                                        F.6.f.G.k.H.I.J.3.~.2.,.,.,.,.2.K.#.u.L.M.N.M.  ",
"                                                        O.# P.G.: Q.R.3.{.3.2.,.,.(.A.S $.S.T.U.V.W.X.  ",
"                                                      4 f Y.< Z.`. +p.$.#.{..+++++S {.#.S.h.@+M.#+$+%+  ",
"                                                        &+! ! ! *+=+-+;+S {.#.a.S.q.>+>+D.@+,+'+)+!+!+  ",
"                                                      ~+) { [ {+j H U a ..*.S t.]+@+^+/+(+_+:+<+[+}+}+  ",
"                                                      & * = |+k t t H 2 1+` 2+~.3+4+5+6+V.7+$+8+9+0+0+  ",
"                                                      ~ = |+0 0 a+u =+a ..>.[.b.a.u./+b+c+d+e+f+g+h+i+  ",
"                                                      { ] 2 l l l ).J ` *.(.b.#.h.C.j+k+c+l+m+n+h+o+    "};
