/* XPM */
static xpm_row_t const red_crystal_xpm[] = {
"56 50 301 2",
"  	c None",
". 	c #FFCAC0",
"+ 	c #FFBEB1",
"@ 	c #FFB4A6",
"# 	c #FFAA9D",
"$ 	c #FF9F93",
"% 	c #FF998E",
"& 	c #FF9288",
"* 	c #FF8D83",
"= 	c #FF867D",
"- 	c #FFC6BB",
"; 	c #FFC4B8",
"> 	c #FFBDB1",
", 	c #FFAB9E",
"' 	c #FF9D91",
") 	c #FF9084",
"! 	c #FF8A80",
"~ 	c #FF8C82",
"{ 	c #FF867C",
"] 	c #FF796B",
"^ 	c #FFC3B6",
"/ 	c #FFBAAC",
"( 	c #FFB3A6",
"_ 	c #FFB2A6",
": 	c #FFA79C",
"< 	c #FF968A",
"[ 	c #FF887C",
"} 	c #FF8379",
"| 	c #FF776A",
"1 	c #FF7264",
"2 	c #FFC2B6",
"3 	c #FFB7A9",
"4 	c #FFAB9D",
"5 	c #FFA396",
"6 	c #FFA79B",
"7 	c #FFA297",
"8 	c #FF9187",
"9 	c #FF8177",
"0 	c #FF7669",
"a 	c #FF7465",
"b 	c #FF6E60",
"c 	c #FFC5BA",
"d 	c #FFB9AC",
"e 	c #FFAD9F",
"f 	c #FFA093",
"g 	c #FF9D92",
"h 	c #FFA197",
"i 	c #FFA79E",
"j 	c #FF9188",
"k 	c #FF8277",
"l 	c #FF7769",
"m 	c #FF7869",
"n 	c #FF6D5F",
"o 	c #FFCABF",
"p 	c #FFBFB4",
"q 	c #FFB4A8",
"r 	c #FFA69A",
"s 	c #FF9E94",
"t 	c #FFA097",
"u 	c #FF9890",
"v 	c #FF897F",
"w 	c #FF7566",
"x 	c #FF7768",
"y 	c #FF7567",
"z 	c #FF6B5D",
"A 	c #FFBFB3",
"B 	c #FFC3B8",
"C 	c #FFB8AB",
"D 	c #FFADA0",
"E 	c #FFA699",
"F 	c #FF988A",
"G 	c #FF9185",
"H 	c #FF887D",
"I 	c #FF8074",
"J 	c #FF7367",
"K 	c #FF6252",
"L 	c #FF7263",
"M 	c #FF7667",
"N 	c #FF695B",
"O 	c #FFAE9E",
"P 	c #FF9F8C",
"Q 	c #FF917D",
"R 	c #FF8977",
"S 	c #FF7D6B",
"T 	c #FF786A",
"U 	c #FF776B",
"V 	c #FF6557",
"W 	c #FF5644",
"X 	c #FF5544",
"Y 	c #FF6A5B",
"Z 	c #FF7365",
"` 	c #FF6556",
" .	c #FFAFA1",
"..	c #FF8670",
"+.	c #FF7761",
"@.	c #FF6C57",
"#.	c #FF6753",
"$.	c #FF6757",
"%.	c #FF6B5E",
"&.	c #FF7166",
"*.	c #FF6153",
"=.	c #FF5342",
"-.	c #FF503D",
";.	c #FF503E",
">.	c #FF6F61",
",.	c #FF685A",
"'.	c #FF5D4E",
").	c #FFCBC1",
"!.	c #FFC4B9",
"~.	c #FF9B89",
"{.	c #FF6952",
"].	c #FF5E49",
"^.	c #FF5E4C",
"/.	c #FF6354",
"(.	c #FF695E",
"_.	c #FF5E4F",
":.	c #FF5745",
"<.	c #FF5341",
"[.	c #FF5340",
"}.	c #FF513F",
"|.	c #FF594A",
"1.	c #FF6859",
"2.	c #FF6759",
"3.	c #FF5748",
"4.	c #FFBDB2",
"5.	c #FF8E7D",
"6.	c #FF6E59",
"7.	c #FF5F4B",
"8.	c #FF5B48",
"9.	c #FF5F50",
"0.	c #FF6357",
"a.	c #FF5B4B",
"b.	c #FF5746",
"c.	c #FF5845",
"d.	c #FF5441",
"e.	c #FF5545",
"f.	c #FF6051",
"g.	c #FF5F51",
"h.	c #FF594B",
"i.	c #FF5343",
"j.	c #FFC3B7",
"k.	c #FFBCB0",
"l.	c #FFB7AA",
"m.	c #FFAC9F",
"n.	c #FF8070",
"o.	c #FF6856",
"p.	c #FF604E",
"q.	c #FF6154",
"r.	c #FF5949",
"s.	c #FF5946",
"t.	c #FF5B49",
"u.	c #FF5847",
"v.	c #FF5443",
"w.	c #FF4F3C",
"x.	c #FF4D3C",
"y.	c #FF5647",
"z.	c #FF5749",
"A.	c #FF5243",
"B.	c #FFB9AB",
"C.	c #FFAFA2",
"D.	c #FF9D90",
"E.	c #FF6558",
"F.	c #FF6255",
"G.	c #FF5848",
"H.	c #FF5C4A",
"I.	c #FF5B4A",
"J.	c #FF5948",
"K.	c #FF5543",
"L.	c #FF4D3B",
"M.	c #FF4836",
"N.	c #FF5040",
"O.	c #FF5141",
"P.	c #FF4C3C",
"Q.	c #FFA295",
"R.	c #FF9387",
"S.	c #FF6E63",
"T.	c #FF6559",
"U.	c #FF5747",
"V.	c #FF5947",
"W.	c #FF5C4B",
"X.	c #FF5241",
"Y.	c #FF4B39",
"Z.	c #FF4432",
"`.	c #FF4736",
" +	c #FF4B3A",
".+	c #FF4635",
"++	c #FFC1B6",
"@+	c #FFB1A4",
"#+	c #FFA194",
"$+	c #FF9E92",
"%+	c #FF9E93",
"&+	c #FF8377",
"*+	c #FF695C",
"=+	c #FF5A47",
"-+	c #FF5A49",
";+	c #FF503F",
">+	c #FF4837",
",+	c #FF3F2E",
"'+	c #FF402F",
")+	c #FF4333",
"!+	c #FF3D2E",
"~+	c #FFBAAD",
"{+	c #FFBAAF",
"]+	c #FFAEA2",
"^+	c #FFA499",
"/+	c #FF9F95",
"(+	c #FF5643",
"_+	c #FF5846",
":+	c #FF5645",
"<+	c #FF3D2C",
"[+	c #FF3827",
"}+	c #FF3A2A",
"|+	c #FF3728",
"1+	c #FFA89C",
"2+	c #FFA69B",
"3+	c #FFA399",
"4+	c #FFA59C",
"5+	c #FF938A",
"6+	c #FF6D60",
"7+	c #FF4F3D",
"8+	c #FF4A39",
"9+	c #FF3B2A",
"0+	c #FF3323",
"a+	c #FF3425",
"b+	c #FF3223",
"c+	c #FF978B",
"d+	c #FF9489",
"e+	c #FF978F",
"f+	c #FF7F74",
"g+	c #FF5140",
"h+	c #FF4F3E",
"i+	c #FF4735",
"j+	c #FF4130",
"k+	c #FF3727",
"l+	c #FF3020",
"m+	c #FF2E1E",
"n+	c #FF2D1D",
"o+	c #FF9488",
"p+	c #FF8B7F",
"q+	c #FF8980",
"r+	c #FF7D72",
"s+	c #FF7162",
"t+	c #FF6657",
"u+	c #FF5E4E",
"v+	c #FF4C39",
"w+	c #FF4A38",
"x+	c #FF4533",
"y+	c #FF3B2B",
"z+	c #FF3424",
"A+	c #FF2C1C",
"B+	c #FF2A1A",
"C+	c #FF2919",
"D+	c #FF9B90",
"E+	c #FF9085",
"F+	c #FF7C70",
"G+	c #FF6E5F",
"H+	c #FF6658",
"I+	c #FF5C4E",
"J+	c #FF5242",
"K+	c #FF4C3B",
"L+	c #FF4532",
"M+	c #FF4230",
"N+	c #FF3C2B",
"O+	c #FF3929",
"P+	c #FF3525",
"Q+	c #FF2514",
"R+	c #FF9388",
"S+	c #FF7A6E",
"T+	c #FF7163",
"U+	c #FF6355",
"V+	c #FF5B4D",
"W+	c #FF4332",
"X+	c #FF3928",
"Y+	c #FF2110",
"Z+	c #FF2211",
"`+	c #FF7A6C",
" @	c #FF7466",
".@	c #FF7668",
"+@	c #FF7164",
"@@	c #FF6052",
"#@	c #FF584A",
"$@	c #FF4534",
"%@	c #FF3626",
"&@	c #FF2F1F",
"*@	c #FF2B1B",
"=@	c #FF2717",
"-@	c #FF2313",
";@	c #FF210F",
">@	c #FF1E0C",
",@	c #FF1C0B",
"'@	c #FF847B",
")@	c #FF786B",
"!@	c #FF7364",
"~@	c #FF6C5E",
"{@	c #FF6456",
"]@	c #FF5E50",
"^@	c #FF5849",
"/@	c #FF3F2F",
"(@	c #FF3324",
"_@	c #FF2515",
":@	c #FF1A09",
"                                                                                                                ",
"                                                                                                                ",
"                                                                                                                ",
"                                                                                                                ",
"                                                                                                                ",
"                                                                                                                ",
"                                                                                                                ",
"                                                                                                                ",
"                                                                                                                ",
"                                                                                                                ",
"                                                                                                                ",
"                                                                                                                ",
"                                                                                                                ",
"                                                                                                                ",
"                                                                                                                ",
"                                                                                                                ",
"                                                                                                                ",
"                                                                                                                ",
"                                                                                                                ",
"                                                                                                                ",
"                                                                                                                ",
"                                                                                                                ",
"                                                                                                                ",
"                                                                                                                ",
"                                                                                                                ",
"                                                                                                                ",
"                                                                                                                ",
"                                                                                              . + @ # $ % & * = ",
"                                                                                            - ; > , ' ) ! ~ { ] ",
"                                                                                          ^ / ( _ : < [ { } | 1 ",
"                                                                                        2 3 4 5 6 7 8 ! 9 0 a b ",
"                                                                                      c d e f g h i j k l m a n ",
"                                                                                    o p q , r s t u v w x m y z ",
"                                                                                A B C D E F G H I J K L M x 1 N ",
"                                                                              O P Q R S x T U U V W X Y Z Z b ` ",
"                                                                            .  ...+.@.#.$.%.&.*.=.-.;.` >.b ,.'.",
"                                                                          ).!.~.+.{.].^./.(._.:.<.[.}.|.1.2.*.3.",
"                                                                        - B 4.5.6.7.8.9.0.a.b.c.:.d.;.e.f.g.h.i.",
"                                                                      j.k.l.m.n.o.p.f.q.r.c.s.t.u.v.w.x.y.z.A.  ",
"                                                                    ^ B. .C.D.m 2.E.F.G.c.s.H.I.J.K.L.M.N.O.P.  ",
"                                                                  - B.4 Q.r R.0 S.T.U.c.V.H.W.I.V.X.Y.Z.`. +.+  ",
"                                                                o ++@+#+$+%+&+| *+b.c.=+H.W.I.-+X ;+>+,+'+)+!+  ",
"                                                                ~+{+]+^+/+/+I *+X (+_+t.I.I.J.:+<.x..+<+[+}+|+  ",
"                                                                 .1+2+3+4+5+6+K.}.d.:.u.V.u.X X.7+8+Z.9+0+a+b+  ",
"                                                              4 5 c+d+8 e+f+b.}.;.[.<.=.=.g+h+x.Y.i+j+k+l+m+n+  ",
"                                                              4 o+p+v q+r+s+t+u+X.g+w.L.v+w+>+i+x+j+y+z+A+B+C+  ",
"                                                              D+E+{ = F+l M a G+H+I+J+K+L+M+,+<+N+O+P+l+C+Q+Q+  ",
"                                                              R+* { S+l m m w T+z U+V+i.8+W+X+P+0+l+m+B+Q+Y+Z+  ",
"                                                              ~ = `+ @a .@y +@b 2.@@#@A.K+$@<+%@&@*@=@-@;@>@,@  ",
"                                                              '@)@!@>.b n ~@,.{@]@^@A.P..+/@O+(@&@*@_@Z+>@:@    "};
