/* XPM */
static xpm_row_t const regular_bird_frame2_xpm[] = {
"50 44 317 2",
"  	c None",
". 	c #000000",
"+ 	c #242113",
"@ 	c #786E49",
"# 	c #857B52",
"$ 	c #322E1C",
"% 	c #6A6240",
"& 	c #020201",
"* 	c #3C3722",
"= 	c #A59967",
"- 	c #D9C988",
"; 	c #F7E59B",
"> 	c #F9E79D",
", 	c #E7D691",
"' 	c #897F54",
") 	c #A69A67",
"! 	c #7B724B",
"~ 	c #F2E199",
"{ 	c #776E49",
"] 	c #CABB7E",
"^ 	c #AFA26D",
"/ 	c #6E6643",
"( 	c #030201",
"_ 	c #7C734C",
": 	c #C1B379",
"< 	c #F3DD8C",
"[ 	c #FBDD7E",
"} 	c #FCDA71",
"| 	c #FDD867",
"1 	c #EEC855",
"2 	c #947500",
"3 	c #BB971E",
"4 	c #FCD96E",
"5 	c #FBDD7C",
"6 	c #CDB669",
"7 	c #A89C69",
"8 	c #C8BA7D",
"9 	c #49432B",
"0 	c #3D2F00",
"a 	c #B48F00",
"b 	c #F8C600",
"c 	c #FFCC00",
"d 	c #D6AB00",
"e 	c #DBB014",
"f 	c #FCD96B",
"g 	c #FBE088",
"h 	c #F0DF97",
"i 	c #918659",
"j 	c #574400",
"k 	c #DAAE00",
"l 	c #FECF31",
"m 	c #FCD96F",
"n 	c #FAE495",
"o 	c #B8AB73",
"p 	c #010100",
"q 	c #353535",
"r 	c #131313",
"s 	c #030200",
"t 	c #C79E00",
"u 	c #FFCD11",
"v 	c #FDD765",
"w 	c #C6B77C",
"x 	c #707070",
"y 	c #C8C8C8",
"z 	c #D1D1D1",
"A 	c #A5A5A5",
"B 	c #030303",
"C 	c #101010",
"D 	c #B3B3B3",
"E 	c #F3F3F3",
"F 	c #FFFFFF",
"G 	c #FDFDFD",
"H 	c #D6D6D6",
"I 	c #666666",
"J 	c #CFA500",
"K 	c #FFCD1E",
"L 	c #FCDB75",
"M 	c #BEB075",
"N 	c #8C8C8C",
"O 	c #FBFBFB",
"P 	c #D2D2D2",
"Q 	c #020202",
"R 	c #0B0B0B",
"S 	c #D5D5D5",
"T 	c #F6F6F6",
"U 	c #676768",
"V 	c #3B2D00",
"W 	c #F1C100",
"X 	c #FED24B",
"Y 	c #99864A",
"Z 	c #454545",
"` 	c #F7F7F7",
" .	c #AEAEAE",
"..	c #B7B7B7",
"+.	c #D9DADB",
"@.	c #252626",
"#.	c #A48200",
"$.	c #F7C60D",
"%.	c #524000",
"&.	c #B6B6B6",
"*.	c #F9F9F9",
"=.	c #F3F4F4",
"-.	c #8B8C8D",
";.	c #221900",
">.	c #F7C500",
",.	c #CBA100",
"'.	c #E3E3E3",
").	c #F2F2F2",
"!.	c #E8E8E8",
"~.	c #E0E0E0",
"{.	c #FCFCFC",
"].	c #B6B7B8",
"^.	c #D7AC00",
"/.	c #FBC900",
"(.	c #4D3C00",
"_.	c #BDBDBD",
":.	c #636363",
"<.	c #696969",
"[.	c #262626",
"}.	c #CCCECF",
"|.	c #C29A00",
"1.	c #AB8800",
"2.	c #040404",
"3.	c #CDCDCD",
"4.	c #B1B1B1",
"5.	c #D8D8D8",
"6.	c #D0D2D3",
"7.	c #AF8B00",
"8.	c #9E9E9E",
"9.	c #161616",
"0.	c #FEFEFE",
"a.	c #F4F4F4",
"b.	c #CED0D1",
"c.	c #BD9700",
"d.	c #EBBB00",
"e.	c #E2E2E2",
"f.	c #BABABA",
"g.	c #959595",
"h.	c #6D6D6D",
"i.	c #E9EAEB",
"j.	c #BABBBC",
"k.	c #D3A800",
"l.	c #F3C300",
"m.	c #B4B4B4",
"n.	c #FAFAFA",
"o.	c #D6D7D8",
"p.	c #939495",
"q.	c #0B0700",
"r.	c #F4C300",
"s.	c #F5C400",
"t.	c #F0C000",
"u.	c #434343",
"v.	c #F5F5F5",
"w.	c #EFEFF0",
"x.	c #ABABAB",
"y.	c #C3C3C3",
"z.	c #E8E9E9",
"A.	c #C8CACB",
"B.	c #373838",
"C.	c #957600",
"D.	c #E6B800",
"E.	c #E3B500",
"F.	c #878787",
"G.	c #F7F7F8",
"H.	c #D6D8D9",
"I.	c #A9ABAB",
"J.	c #010101",
"K.	c #EDEEEE",
"L.	c #CDCFD0",
"M.	c #707172",
"N.	c #2A2000",
"O.	c #EABB00",
"P.	c #C29B00",
"Q.	c #B99300",
"R.	c #C29800",
"S.	c #686868",
"T.	c #B3B4B4",
"U.	c #A7A8A9",
"V.	c #7F8081",
"W.	c #3A3A3A",
"X.	c #CACACA",
"Y.	c #E0E1E2",
"Z.	c #BEC0C1",
"`.	c #696A6B",
" +	c #CBA200",
".+	c #C49D00",
"++	c #BB9500",
"@+	c #624D00",
"#+	c #FFB900",
"$+	c #814C00",
"%+	c #812D11",
"&+	c #7E2C10",
"*+	c #020100",
"=+	c #7A6000",
"-+	c #313132",
";+	c #636465",
">+	c #525354",
",+	c #413200",
"'+	c #D1A700",
")+	c #AA8700",
"!+	c #423300",
"~+	c #735A00",
"{+	c #E0B300",
"]+	c #FFC800",
"^+	c #FFAB00",
"/+	c #E28700",
"(+	c #5D1E09",
"_+	c #B1401B",
":+	c #E25425",
"<+	c #F05A28",
"[+	c #D44F22",
"}+	c #DCAF00",
"|+	c #866A00",
"1+	c #9A7A00",
"2+	c #C39B00",
"3+	c #C79F00",
"4+	c #F6C400",
"5+	c #FDCA00",
"6+	c #DFB200",
"7+	c #FAC800",
"8+	c #806500",
"9+	c #B56C00",
"0+	c #FB9600",
"a+	c #714100",
"b+	c #160301",
"c+	c #6B240C",
"d+	c #8F3214",
"e+	c #A83D19",
"f+	c #C2471E",
"g+	c #3E1204",
"h+	c #907000",
"i+	c #FFC900",
"j+	c #FFCB00",
"k+	c #FFC600",
"l+	c #594600",
"m+	c #B79200",
"n+	c #E9BA00",
"o+	c #9B7B00",
"p+	c #B89300",
"q+	c #F6C500",
"r+	c #673B00",
"s+	c #0A0400",
"t+	c #120600",
"u+	c #F39200",
"v+	c #FFA300",
"w+	c #FFAE00",
"x+	c #FFB600",
"y+	c #FFBB00",
"z+	c #FFB300",
"A+	c #FFA600",
"B+	c #FF9A00",
"C+	c #FF9900",
"D+	c #FF9D00",
"E+	c #A97900",
"F+	c #977700",
"G+	c #856900",
"H+	c #BC9600",
"I+	c #FECB00",
"J+	c #AE8A00",
"K+	c #DCB000",
"L+	c #826700",
"M+	c #734200",
"N+	c #CE7B00",
"O+	c #DE8400",
"P+	c #C77700",
"Q+	c #E58900",
"R+	c #F29100",
"S+	c #331A00",
"T+	c #644F00",
"U+	c #9C7C00",
"V+	c #B28E00",
"W+	c #161000",
"X+	c #8E7000",
"Y+	c #8A5000",
"Z+	c #D68000",
"`+	c #FD9800",
" @	c #B96D00",
".@	c #1F1700",
"+@	c #E1B400",
"@@	c #2F2400",
"#@	c #A88500",
"$@	c #422300",
"%@	c #995A00",
"&@	c #C57500",
"*@	c #E38800",
"=@	c #F69400",
"-@	c #EF8F00",
";@	c #442500",
">@	c #513F00",
",@	c #F2C100",
"'@	c #D0A600",
")@	c #2B1600",
"!@	c #6A3D00",
"~@	c #7C4700",
"{@	c #7A4700",
"]@	c #7B4700",
"^@	c #7C4800",
"/@	c #643900",
"(@	c #1E0E00",
"_@	c #4F3E00",
":@	c #8A6D00",
"<@	c #C59D00",
"[@	c #564300",
"}@	c #1E1600",
"|@	c #B38F00",
"1@	c #584400",
"2@	c #150F00",
"3@	c #DBAF00",
"4@	c #1C1400",
"5@	c #EBBC00",
"6@	c #D8AD00",
"7@	c #E7B900",
"8@	c #0D0800",
"9@	c #CCA300",
"0@	c #191100",
"a@	c #634E00",
"b@	c #654F00",
"                                                                                                    ",
"                          .                                                                         ",
"                        . .                                                                         ",
"                      . .         . . . . .                                                         ",
"                    . .       . . . . . .                                                           ",
"                  . . .     . . . . . .                                                             ",
"                  . .     . . . . .                                                                 ",
"                . . .   . . . . . . . . . . . .                                                     ",
"                . . . . . . . . + @ # . . . $ % & . . .                                             ",
"                . . . . . * = - ; > , . . . ' > ) . . . . .                                         ",
"                . . . . ! ~ > > > > > { . . ] > ) . . . ^ / . .                                     ",
"                . . . . ( _ : < [ } | 1 2 3 4 5 6 . . 7 > > 8 9 .                                   ",
"                . . . . . . . 0 a b c c c c c c c d e f g > > h i . .                               ",
"              . . . . . . . . . . j k c c c c c c c c c c l m n > o p .                             ",
"          . . . . . . . . . . q r . s t c c c c c c c c c c c u v n w . .               . . .       ",
"        . x y z A B . . C D E F G H I . J c c c c c c c c c c c c K L M .             . . . .       ",
"      . N O F F F P Q R S F F F F F T U V W c c c c c c c c c c c c c X Y .         . . . . .       ",
"    . Z ` F F F F F  ...F F F F F F F +.@.#.c c c c c c c c c c c c c c $.%..   . . . . . . . .     ",
"    . &.F F F F F F *.O F F F F F F F =.-.;.>.c c c c c c c c c c c c c c ,.. . . . . . . . . . .   ",
"    . '.O ).F F F F F F !.~.F F F F F {.].. ^.c c c c c c c c c c c c c c /.(.. . . . . . . .       ",
"    . {._.:.F F F F F F <.[.E F F F F F }.. |.c c c c c c c c c c c c c c c 1.. . . .               ",
"  . 2.F 3.. O F F F F O 4.. 5.F F F F G 6.. 7.c c c c c c c c c c c c c c c d . . . . . . .         ",
"    . O 8.9.0.F F F F a.. . ~.F F F F T b.. c.c c c c c c c c c c c c c c c d.. . . . . . . . . .   ",
"    . e.'.f.F F F F F F g.h.G F F F F i.j.. k.c c c c c c c c c c c c c c c l.. . . . . . . . . .   ",
"    . m.F F F F F F n.0.F 0.F F F F 0.o.p.q.r.c s.c c c /.c c c c c c c c c t.. . . . . . . . .     ",
"    . u.v.F F F *.w.x.y.F F F F F F z.A.B.C.c c D.c c c l.k c c c c c c c c E.. . .     . . . .     ",
"      . F.O F G.H.I.J.q e.F F F F K.L.M.N.O.c c ^.c c c c P.Q./.c c c c c c R..   .         . .     ",
"        . S.T.U.V.. . . W.X.{.v.Y.Z.`..  +c c c .+c c c c c ++@+J c c c c #+$+.                     ",
"        . . . . . %+&+*+=+. -+;+>+. ,+'+c c c c )+/.c c c c c d !+~+{+]+^+/+.                       ",
"      . . . (+_+:+<+[+. k.}+)+|+1+2+>.c c c c c  +3+c 4+c 5+6+7+t.8+. 9+0+a+.                       ",
"  . . . . . b+c+d+e+f+g+h+i+c c c c c c c j+k+j+>.l+4+7+m+n+>.o+p+q+#.. r+.                         ",
"            . . . s+. . t+u+v+w+x+y+y+z+A+B+C+D+z+E+F+c 7+G+H+I+J+j K+L+.                           ",
"              . . M+N+O+P+Q+C+C+C+C+C+C+C+C+C+C+C+R+S+.+c 4+T+U+5+V+W+X+.                           ",
"                  . . Y+Z+`+C+C+C+C+C+C+C+C+C+C+C+C+ @.@+@c n+@@#@c |+. . . .                       ",
"                      . . $@%@&@*@=@C+C+C+C+C+C+C+C+-@;@>@,@c H+. k '@. . . . .                     ",
"                          . . . . . )@!@~@{@]@^@/@(@. . . 8+5+7+_@:@<@.                             ",
"                                    . . . . . [@)+G+. }@. . p+c |@q.1@.                             ",
"                                            . 2@n+3@. . . . 4@5@6@. .                               ",
"                                              . F+7@. .     . o+7@. .                               ",
"                                              . 8@9@.       . 0@ +.                                 ",
"                                                . a@.         . b@.                                 ",
"                                                . . .         . . .                                 ",
"                                                . .           . .                                   ",
"                                                                                                    "};
