/* XPM */
static xpm_row_t const regular_bird_frame1_xpm[] = {
"50 44 326 2",
"  	c None",
". 	c #000000",
"+ 	c #242113",
"@ 	c #786E49",
"# 	c #857B52",
"$ 	c #322E1C",
"% 	c #6A6240",
"& 	c #020201",
"* 	c #3C3722",
"= 	c #A59967",
"- 	c #D9C988",
"; 	c #F7E59B",
"> 	c #F9E79D",
", 	c #E7D691",
"' 	c #897F54",
") 	c #A69A67",
"! 	c #010100",
"~ 	c #7B724B",
"{ 	c #F2E199",
"] 	c #776E49",
"^ 	c #CABB7E",
"/ 	c #AFA26D",
"( 	c #6E6643",
"_ 	c #8C6F00",
": 	c #2B2000",
"< 	c #A68400",
"[ 	c #030201",
"} 	c #7C734C",
"| 	c #C1B379",
"1 	c #F3DD8C",
"2 	c #FBDD7E",
"3 	c #FCDA71",
"4 	c #FDD867",
"5 	c #EEC855",
"6 	c #937500",
"7 	c #BB971E",
"8 	c #FCD96E",
"9 	c #FBDD7C",
"0 	c #CDB669",
"a 	c #A89C69",
"b 	c #C8BA7D",
"c 	c #49432B",
"d 	c #8B6E00",
"e 	c #C69E00",
"f 	c #CAA100",
"g 	c #3D2F00",
"h 	c #B48F00",
"i 	c #F8C600",
"j 	c #FFCC00",
"k 	c #D6AB00",
"l 	c #DBB014",
"m 	c #FCD96B",
"n 	c #FBE088",
"o 	c #F0DF97",
"p 	c #575034",
"q 	c #BE9700",
"r 	c #AA8700",
"s 	c #574400",
"t 	c #DAAE00",
"u 	c #FECF31",
"v 	c #FBD86F",
"w 	c #A59866",
"x 	c #2C2100",
"y 	c #CDA400",
"z 	c #FAC800",
"A 	c #4A3900",
"B 	c #353535",
"C 	c #101010",
"D 	c #030200",
"E 	c #C79E00",
"F 	c #8E7100",
"G 	c #594600",
"H 	c #E3B500",
"I 	c #B89300",
"J 	c #707070",
"K 	c #C8C8C8",
"L 	c #D1D1D1",
"M 	c #A5A5A5",
"N 	c #030303",
"O 	c #B3B3B3",
"P 	c #F3F3F3",
"Q 	c #FFFFFF",
"R 	c #FDFDFD",
"S 	c #D6D6D6",
"T 	c #666666",
"U 	c #CFA500",
"V 	c #F6C400",
"W 	c #7F6400",
"X 	c #836700",
"Y 	c #F3C200",
"Z 	c #E2B400",
"` 	c #1F1600",
" .	c #B79100",
"..	c #735B00",
"+.	c #8C8C8C",
"@.	c #FBFBFB",
"#.	c #D2D2D2",
"$.	c #020202",
"%.	c #0B0B0B",
"&.	c #D5D5D5",
"*.	c #F6F6F6",
"=.	c #676768",
"-.	c #3B2D00",
";.	c #F1C100",
">.	c #F5C400",
",.	c #715900",
"'.	c #A58300",
").	c #FCC900",
"!.	c #EEBE00",
"~.	c #4E3D00",
"{.	c #A78500",
"].	c #927300",
"^.	c #454545",
"/.	c #F7F7F7",
"(.	c #AEAEAE",
"_.	c #B7B7B7",
":.	c #D9DADB",
"<.	c #252626",
"[.	c #A48200",
"}.	c #FBC800",
"|.	c #7D6200",
"1.	c #B89200",
"2.	c #EABB00",
"3.	c #634D00",
"4.	c #DFB200",
"5.	c #0C0700",
"6.	c #B6B6B6",
"7.	c #F9F9F9",
"8.	c #F3F4F4",
"9.	c #8B8C8D",
"0.	c #221900",
"a.	c #F7C500",
"b.	c #A18000",
"c.	c #BB9500",
"d.	c #DEB100",
"e.	c #EBBC00",
"f.	c #D4A900",
"g.	c #362900",
"h.	c #927400",
"i.	c #E3E3E3",
"j.	c #F2F2F2",
"k.	c #E8E8E8",
"l.	c #E0E0E0",
"m.	c #FCFCFC",
"n.	c #B6B7B8",
"o.	c #D7AC00",
"p.	c #DBAF00",
"q.	c #FECB00",
"r.	c #F2C100",
"s.	c #9C7C00",
"t.	c #332700",
"u.	c #302400",
"v.	c #4D3C00",
"w.	c #BDBDBD",
"x.	c #636363",
"y.	c #696969",
"z.	c #262626",
"A.	c #CCCECF",
"B.	c #C29A00",
"C.	c #9E7E00",
"D.	c #FBC900",
"E.	c #F2C200",
"F.	c #B08C00",
"G.	c #3F3000",
"H.	c #E5B700",
"I.	c #AB8800",
"J.	c #040404",
"K.	c #CDCDCD",
"L.	c #B1B1B1",
"M.	c #D8D8D8",
"N.	c #D0D2D3",
"O.	c #AF8B00",
"P.	c #EDBD00",
"Q.	c #D8AC00",
"R.	c #C49C00",
"S.	c #F6C500",
"T.	c #EFBF00",
"U.	c #211800",
"V.	c #F8C700",
"W.	c #9E9E9E",
"X.	c #161616",
"Y.	c #FEFEFE",
"Z.	c #F4F4F4",
"`.	c #CED0D1",
" +	c #BD9700",
".+	c #DCB000",
"++	c #FECC00",
"@+	c #987900",
"#+	c #EBBB00",
"$+	c #E2E2E2",
"%+	c #BABABA",
"&+	c #959595",
"*+	c #6D6D6D",
"=+	c #E9EAEB",
"-+	c #BABBBC",
";+	c #D3A800",
">+	c #F0C000",
",+	c #8F7200",
"'+	c #8F7100",
")+	c #F3C300",
"!+	c #B4B4B4",
"~+	c #FAFAFA",
"{+	c #D6D7D8",
"]+	c #939495",
"^+	c #0B0700",
"/+	c #F4C300",
"(+	c #FDCA00",
"_+	c #C9A100",
":+	c #A88600",
"<+	c #A88500",
"[+	c #434343",
"}+	c #F5F5F5",
"|+	c #EFEFF0",
"1+	c #ABABAB",
"2+	c #C3C3C3",
"3+	c #E8E9E9",
"4+	c #C8CACB",
"5+	c #373838",
"6+	c #957600",
"7+	c #878787",
"8+	c #F7F7F8",
"9+	c #D6D8D9",
"0+	c #A9ABAB",
"a+	c #010101",
"b+	c #EDEEEE",
"c+	c #CDCFD0",
"d+	c #707172",
"e+	c #2A2000",
"f+	c #C29800",
"g+	c #686868",
"h+	c #B3B4B4",
"i+	c #A7A8A9",
"j+	c #7F8081",
"k+	c #3A3A3A",
"l+	c #CACACA",
"m+	c #E0E1E2",
"n+	c #BEC0C1",
"o+	c #696A6B",
"p+	c #CBA200",
"q+	c #FFB900",
"r+	c #814C00",
"s+	c #812D11",
"t+	c #7E2C10",
"u+	c #020100",
"v+	c #7A6000",
"w+	c #313132",
"x+	c #636465",
"y+	c #525354",
"z+	c #413200",
"A+	c #D1A700",
"B+	c #FFC500",
"C+	c #FFC900",
"D+	c #FFC800",
"E+	c #FFAB00",
"F+	c #E28700",
"G+	c #5D1E09",
"H+	c #B1401B",
"I+	c #E25425",
"J+	c #F05A28",
"K+	c #D44F22",
"L+	c #DCAF00",
"M+	c #866A00",
"N+	c #9A7A00",
"O+	c #C39B00",
"P+	c #FFB200",
"Q+	c #FF9900",
"R+	c #FF9A00",
"S+	c #FB9600",
"T+	c #714100",
"U+	c #160301",
"V+	c #6B240C",
"W+	c #8F3214",
"X+	c #A83D19",
"Y+	c #C2471E",
"Z+	c #3E1204",
"`+	c #907000",
" @	c #FFCB00",
".@	c #FFC600",
"+@	c #FFCA00",
"@@	c #FFB100",
"#@	c #FFC000",
"$@	c #FD9800",
"%@	c #985900",
"&@	c #0A0400",
"*@	c #120600",
"=@	c #F39200",
"-@	c #FFA300",
";@	c #FFAE00",
">@	c #FFB600",
",@	c #FFBB00",
"'@	c #FFB300",
")@	c #FFA600",
"!@	c #FF9D00",
"~@	c #FFBE00",
"{@	c #FFB500",
"]@	c #FF9E00",
"^@	c #F79400",
"/@	c #8D5200",
"(@	c #734200",
"_@	c #CE7B00",
":@	c #DE8400",
"<@	c #C77700",
"[@	c #E58900",
"}@	c #D37E00",
"|@	c #5A3300",
"1@	c #8A5000",
"2@	c #D68000",
"3@	c #F89500",
"4@	c #CD7A00",
"5@	c #754300",
"6@	c #422300",
"7@	c #995A00",
"8@	c #C57500",
"9@	c #E38800",
"0@	c #F69400",
"a@	c #DE8500",
"b@	c #C07200",
"c@	c #905400",
"d@	c #2B1600",
"e@	c #6A3D00",
"f@	c #7C4700",
"g@	c #7A4700",
"h@	c #7B4700",
"i@	c #7C4800",
"j@	c #643900",
"k@	c #1E0E00",
"                                                                                                    ",
"                          .                                                                         ",
"                        . .                                                                         ",
"                      . .         . . . . .                                                         ",
"                    . .       . . . . . .                                                           ",
"                  . . .     . . . . . .                                                             ",
"                  . .     . . . . .                                                                 ",
"                . . .   . . . . . . . . . . . .                                                     ",
"                . . . . . . . . + @ # . . . $ % & . . .           .     .                           ",
"                . . . . . * = - ; > , . . . ' > ) . . . . .       . . . !                           ",
"                . . . . ~ { > > > > > ] . . ^ > ) . . . / ( . . . _ . : < .                         ",
"                . . . . [ } | 1 2 3 4 5 6 7 8 9 0 . . a > > b c . d . e f .                         ",
"                . . . . . . . g h i j j j j j j j k l m n > > o p . q j r .                         ",
"              . . . . . . . . . . s t j j j j j j j j j j u v w x y j z A                           ",
"          . . . . . . . . . . B C . D E j j j j j j j j j z F G H j j I . .             . . .       ",
"        . J K L M N . . C O P Q R S T . U j j j j j j j V W X Y j j Z `  ...          . . . .       ",
"      . +.@.Q Q Q #.$.%.&.Q Q Q Q Q *.=.-.;.j j j j j >.,.'.).j j !.~.{.j ].        . . . . .       ",
"    . ^./.Q Q Q Q Q (._.Q Q Q Q Q Q Q :.<.[.j j j j }.|.1.j j j 2.3.q j 4.5..   . . . . . . . .     ",
"    . 6.Q Q Q Q Q Q 7.@.Q Q Q Q Q Q Q 8.9.0.a.j j j b.c.j j j d.{.e.j f.g.h.. . . . . . . . . . .   ",
"    . i.@.j.Q Q Q Q Q Q k.l.Q Q Q Q Q m.n.. o.j j p.'.j j j q.V j r.s.t.u.t v.. . . . . . . .       ",
"    . m.w.x.Q Q Q Q Q Q y.z.P Q Q Q Q Q A.. B.j j C.D.j j j j E.F.G.b.!.v.H.I.. . . .               ",
"  . J.Q K.. @.Q Q Q Q @.L.. M.Q Q Q Q R N.. O.j P.Q.j j j >.R.r U S.j T.U.V.k . . . . . . .         ",
"    . @.W.X.Y.Q Q Q Q Z.. . l.Q Q Q Q *.`..  +j .+j j j j j j j j j ++@+{.j #+. . . . . . . . . .   ",
"    . $+i.%+Q Q Q Q Q Q &+*+R Q Q Q Q =+-+. ;+j >+j j j j j j j j e.,+'+}.j )+. . . . . . . . . .   ",
"    . !+Q Q Q Q Q Q ~+Y.Q Y.Q Q Q Q Y.{+]+^+/+j j j j j (+T..+_+:+<+.+j j j >+. . . . . . . . .     ",
"    . [+}+Q Q Q 7.|+1+2+Q Q Q Q Q Q 3+4+5+6+j j j j j j j j j j j j j j j j H . . .     . . . .     ",
"      . 7+@.Q 8+9+0+a+B $+Q Q Q Q b+c+d+e+2.j j j j j j j j j j j j j j j j f+.   .         . .     ",
"        . g+h+i+j+. . . k+l+m.}+m+n+o+. p+j j j j j j j j j j j j j j j j q+r+.                     ",
"        . . . . . s+t+u+v+. w+x+y+. z+A+j j j j j j j j j j j j j B+C+D+E+F+.                       ",
"      . . . G+H+I+J+K+. ;+L+r M+N+O+a.j j j j j j j j j j j j j P+Q+Q+R+S+T+.                       ",
"  . . . . . U+V+W+X+Y+Z+`+C+j j j j j j j  @.@ @j j j +@q+@@#@P+Q+Q+Q+$@%@.                         ",
"            . . . &@. . *@=@-@;@>@,@,@'@)@R+Q+!@'@~@{@]@Q+Q+Q+Q+Q+Q+^@/@.                           ",
"              . . (@_@:@<@[@Q+Q+Q+Q+Q+Q+Q+Q+Q+Q+Q+Q+Q+Q+Q+Q+Q+Q+Q+}@|@. .                           ",
"                  . . 1@2@$@Q+Q+Q+Q+Q+Q+Q+Q+Q+Q+Q+Q+Q+Q+Q+Q+3@4@5@. . . . . .                       ",
"                      . . 6@7@8@9@0@Q+Q+Q+Q+Q+Q+Q+Q+=@a@b@c@d@. .         . . .                     ",
"                          . . . . . d@e@f@g@h@i@j@k@. . . . . . . .                                 ",
"                                    . . . . . . . .           . . . .                               ",
"                                                                    .                               ",
"                                                                                                    ",
"                                                                                                    ",
"                                                                                                    ",
"                                                                                                    ",
"                                                                                                    ",
"                                                                                                    "};
