/* XPM */
static xpm_row_t const seven_xpm[] = {
"15 33 4 1",
" 	c None",
".	c #F20000",
"+	c #F10000",
"@	c #F30000",
"               ",
"               ",
"               ",
"               ",
"               ",
"   ...........+",
"   ............",
"   ............",
"   +..........@",
"   ..+.........",
"         ......",
"         ..... ",
"        +..... ",
"        .....  ",
"        .....  ",
"       ......  ",
"       .....   ",
"      ......   ",
"      .....    ",
"     +....+    ",
"     .....     ",
"    @.....     ",
"    .....      ",
"    .....      ",
"   .....@      ",
"   .....       ",
"               ",
"               ",
"               ",
"               ",
"               ",
"               ",
"               "};
