/* XPM */
static xpm_row_t const nine_xpm[] = {
"18 33 4 1",
" 	c None",
".	c #F20000",
"+	c #F30000",
"@	c #F10000",
"                  ",
"                  ",
"                  ",
"                  ",
"                  ",
"      .....+..    ",
"     ..........   ",
"    ............  ",
"    ............. ",
"   .............. ",
"   .....    ..... ",
"   .....     .... ",
"   .....     .... ",
"   ........++.... ",
"   .............. ",
"    ............. ",
"     ............ ",
"      ........... ",
"            ..... ",
"            @.... ",
"            ..... ",
"   .............. ",
"   .............+ ",
"   @............  ",
"   +...........   ",
"   ++...+...@.    ",
"                  ",
"                  ",
"                  ",
"                  ",
"                  ",
"                  ",
"                  "};
