/* XPM */
static xpm_row_t const points_xpm[] = {
"88 33 4 1",
" 	c None",
".	c #F20000",
"+	c #F10000",
"@	c #F30000",
"                                                                                        ",
"                                                                                        ",
"                                                                                        ",
"                                                                                        ",
"                                                                                        ",
"   .+.........       ........     ..... ....@    +.... ............    ..+.@.....       ",
"   @...........     @.........    @.... .....    ..... @...........   @..........       ",
"   +............    ...........   +.... ......   ..... ............   ...........       ",
"   ..............  .............  ..... ......   ..... ............  ............       ",
"   .......+...... @.............. ..... ......   ....+ ............ @............       ",
"   .....    +.... .....+.@ ...... ..... .......  ....+     ....     .....+@.+           ",
"   .....    +.... .....     ....@ ..... .......  ....@     ....     .....         ..... ",
"   .....    +.... .....     ....@ ..... ........ ....@     ....     .....+        ..... ",
"   .....    ..... .....     ....@ ..... ........ ....@     ....     .......       ..... ",
"   .............. .....     ....+ ..... ..............     ....     .........     ..... ",
"   .............  .....     ....+ ..... ........@.....     ....      ..........   ....@ ",
"   ............   .....     ..... ..... ..............     ....        .........        ",
"   ...........+   .....     ..... ..... ..............     ....          ........       ",
"   ..........+    .....     ..... ..... ..... ........     ....           @......       ",
"   .....          .....     ..... ..... ..... .......+     ....             .....       ",
"   .....          .....     ..... ..... ..... .......+     ....             .....       ",
"   ....+          +.............+ ....@ .....  ......+     ....     ............. ..+.@ ",
"   .....          ..............  ..... .....  ......      ....     ............. ..... ",
"   .....           ............   ..... +....   .....      ....     ............  ..... ",
"   .....            ..........    ..... @....   .....      ....@    ...........   ..... ",
"   .....             .........    ..... @....   @....      ....+    ..........    ..... ",
"                                                                                        ",
"                                                                                        ",
"                                                                                        ",
"                                                                                        ",
"                                                                                        ",
"                                                                                        ",
"                                                                                        "};
