/* XPM */
static xpm_row_t const cursor_xpm[] = {
"17 28 64 1",
" 	c None",
".	c #E1E1E1",
"+	c #F7F7F7",
"@	c #DFDFDF",
"#	c #FFFFFF",
"$	c #F8F8F8",
"%	c #DEDEDE",
"&	c #FAFAFA",
"*	c #F2F2F2",
"=	c #F9F9F9",
"-	c #F3F3F3",
";	c #656464",
">	c #000000",
",	c #666565",
"'	c #FCFCFC",
")	c #646464",
"!	c #F1F1F1",
"~	c #636363",
"{	c #FDFDFD",
"]	c #626262",
"^	c #FBFBFB",
"/	c #616161",
"(	c #A09F9F",
"_	c #F6F6F6",
":	c #FBFAFA",
"<	c #3E3E3E",
"[	c #C4C3C3",
"}	c #020202",
"|	c #161616",
"1	c #ECECEC",
"2	c #D0D0D0",
"3	c #D5D5D5",
"4	c #D6D6D6",
"5	c #D9D9D9",
"6	c #464646",
"7	c #E5E5E5",
"8	c #9B9B9B",
"9	c #9A9A9A",
"0	c #565656",
"a	c #E9E9E9",
"b	c #F0F0F0",
"c	c #171717",
"d	c #010101",
"e	c #EEEEEE",
"f	c #A9A9A9",
"g	c #868686",
"h	c #EBEBEB",
"i	c #F4F4F3",
"j	c #353535",
"k	c #DBDBDB",
"l	c #DFDEDE",
"m	c #B5B5B5",
"n	c #747474",
"o	c #E2E2E2",
"p	c #E4E4E4",
"q	c #474747",
"r	c #505050",
"s	c #EDEDED",
"t	c #FCFBFB",
"u	c #CBCBCB",
"v	c #BEBEBE",
"w	c #B8B8B8",
"x	c #EFEFEF",
"y	c #C5C5C5",
"                 ",
".+               ",
"@#$              ",
"%&*=             ",
"%-;*=            ",
"%->,*&           ",
"%->>;*'          ",
"%->>>)!'         ",
"%->>>>~!{        ",
"%->>>>>]!^       ",
"%->>>>>>]!'      ",
"%->>>>>>>]!'     ",
"%->>>>>>>>]!'    ",
"%->>>>>>>>>/!'   ",
"%->>>>>>>>>>]!'  ",
"%->>>>>>(____:#' ",
"%->><[}>|1+23445 ",
"%->67#8>>9#      ",
"%-0a{b1c>d7_     ",
"%$e^  {f>>g#     ",
"%#=   hij>>k=    ",
"l=     {m>>n#o   ",
"       p$q>rs^   ",
"        tuv&#!   ",
"        @##*w    ",
"         xy      ",
"                 ",
"                 "};
