/* XPM */
static xpm_row_t const hand_cursor_xpm[] = {
"20 21 75 1",
" 	c None",
".	c #000000",
"+	c #2A2A2A",
"@	c #E4E4E4",
"#	c #BFBFBF",
"$	c #7C7C7C",
"%	c #FFFFFF",
"&	c #6F6F6F",
"*	c #5E5E5E",
"=	c #F7F7F7",
"-	c #E2E2E2",
";	c #D9D9D9",
">	c #FAFAFA",
",	c #B5B5B5",
"'	c #626262",
")	c #A6A6A6",
"!	c #D1D1D1",
"~	c #969696",
"{	c #D4D4D4",
"]	c #9F9F9F",
"^	c #737373",
"/	c #999999",
"(	c #CACACA",
"_	c #FEFEFE",
":	c #F2F2F2",
"<	c #757575",
"[	c #909090",
"}	c #060606",
"|	c #676767",
"1	c #B8B8B8",
"2	c #595959",
"3	c #F0F0F0",
"4	c #383838",
"5	c #ECECEC",
"6	c #FCFCFC",
"7	c #DCDCDC",
"8	c #D7D7D7",
"9	c #3A3A3A",
"0	c #E0E0E0",
"a	c #F4F4F4",
"b	c #EEEEEE",
"c	c #DDDDDD",
"d	c #CBCBCB",
"e	c #888888",
"f	c #C7C7C7",
"g	c #EBEBEB",
"h	c #ADADAD",
"i	c #ACACAC",
"j	c #C9C9C9",
"k	c #464646",
"l	c #F3F3F3",
"m	c #E7E7E7",
"n	c #E8E8E8",
"o	c #4C4C4C",
"p	c #F1F1F1",
"q	c #D5D5D5",
"r	c #525252",
"s	c #F9F9F9",
"t	c #AEAEAE",
"u	c #5F5F5F",
"v	c #878787",
"w	c #AAAAAA",
"x	c #B3B3B3",
"y	c #BCBCBC",
"z	c #6A6A6A",
"A	c #D0D0D0",
"B	c #7A7A7A",
"C	c #949494",
"D	c #BBBBBB",
"E	c #CECECE",
"F	c #F5F5F5",
"G	c #434343",
"H	c #393939",
"I	c #929292",
"J	c #181818",
"     ..             ",
"    +@#.            ",
"    $%%&            ",
"    *%%#.           ",
"    .=%-.           ",
"    .;%>....  ..    ",
"     ,%%')%!.~{].   ",
"     ^%%/(%_.@%:.<[.",
" }|. .=%1#%%23%%456.",
".7%89.0%%%%%%%%%a%%.",
".b%%c.d%%%%%%%%%%%%.",
" e_%%#f%%g3%8_>c%%6.",
" .h%%%%%%ij%klm$%%n.",
"  .8%%%%%hj%opm$%%q.",
"   rs%%%%tj%u5m$%%v ",
"   .w%%%%xy%zgm$%A. ",
"    .d%%%##%B35v59  ",
"     .j%%%%%%%%%C   ",
"      .D%%%%EeF%G   ",
"       $%%%-H.I>J   ",
"       .....  ...   "};
